<svg width="222" height="650" viewBox="0 0 222 650" fill="none" xmlns="http://www.w3.org/2000/svg">
<path fill-rule="evenodd" clip-rule="evenodd" d="M-219.935 574.067C-223.89 562.774 -227.92 558.112 -230.967 556.1L-256.811 558.756C-258.874 559.541 -260.851 560.35 -262.663 561.112C-279.42 568.041 -297.829 570.239 -314.445 567.293C-331.418 564.283 -343.96 556.443 -349.834 545.144C-357.559 530.305 -348.373 515.465 -337.583 498.232C-328.812 484.117 -318.894 468.109 -315.689 450.032L-266.197 170.907C-241.87 33.7043 -106.359 -16.3404 14.7899 5.14053C130.277 25.6176 242.871 113.086 217.414 256.657L167.923 535.781C164.732 553.777 168.554 572.134 171.927 588.332L171.98 588.583C176.106 608.461 179.642 625.556 167.285 636.906C157.896 645.427 143.424 648.477 126.519 645.48C109.823 642.52 93.2918 634.127 79.9267 621.857C73.431 615.743 63.8682 607.503 56.4502 606.188C54.2549 605.799 47.5418 604.608 35.3725 619.335C15.9041 642.764 -4.83062 652.7 -26.3219 648.889C-42.5906 646.005 -57.7968 635.515 -72.8597 616.756C-82.2358 605.11 -104.699 601.27 -117.414 608.856C-165.258 637.593 -202.016 624.376 -219.935 574.067ZM-298.22 494.863L-306.933 506.572C-303.658 501.163 -300.299 495.349 -297.201 489.111L-298.22 494.863ZM13.072 165.239C20.767 171.981 27.9867 179.187 35.058 186.557C37.1205 188.718 39.1656 190.896 41.1949 193.089C46.5263 188.026 51.9245 183.039 57.6286 178.396C62.3223 174.575 69.2409 175.279 73.081 179.969C76.7436 184.45 76.2398 190.989 72.0912 194.894C66.7782 199.871 61.1742 204.513 55.4968 209.069L55.6757 209.275C62.3553 217.04 69.0309 224.828 75.1453 233.159C78.2073 237.331 81.1407 241.623 83.9395 246.07C86.7267 250.514 89.3657 255.123 91.6598 260.063C91.6788 260.091 91.6611 260.123 91.636 260.131C91.6308 260.134 91.6243 260.136 91.6176 260.136C91.6102 260.137 91.6025 260.136 91.5961 260.135L91.5877 260.134C86.5901 257.939 81.9278 255.399 77.4097 252.718C72.9052 250.027 68.5489 247.172 64.3076 244.207C55.8386 238.267 47.9096 231.768 39.9942 225.26C39.0738 224.497 38.1553 223.732 37.239 222.964C36.0885 223.801 34.9347 224.634 33.778 225.464C27.1146 230.244 20.3235 234.87 13.3225 239.269C9.82199 241.469 6.25288 243.585 2.63416 245.644C-1.00559 247.688 -4.65282 249.707 -8.50996 251.498C-8.80844 251.635 -9.15438 251.502 -9.30581 251.214C-9.40425 251.03 -9.39054 250.818 -9.27695 250.648C-6.98561 247.068 -4.49797 243.725 -1.98927 240.398C0.538447 237.098 3.10832 233.829 5.76579 230.671C11.0617 224.328 16.556 218.21 22.1875 212.259C22.5777 211.845 22.9684 211.432 23.3596 211.019C21.167 209.077 18.9897 207.121 16.8288 205.148C9.30719 198.234 1.94337 191.169 -4.96613 183.625C-9.77851 178.369 -9.41654 170.211 -4.15545 165.409C0.724131 160.943 8.17815 160.98 13.072 165.239ZM-94.1577 154.121C-88.7779 159.739 -83.6844 165.628 -78.6181 171.536C-78.0544 172.217 -77.4886 172.896 -76.9219 173.575C-75.016 171.759 -73.0754 169.98 -71.0825 168.261C-67.4374 165.112 -61.9201 165.519 -58.7641 169.16C-55.7778 172.617 -56.0111 177.763 -59.1417 180.968C-61.2759 183.144 -63.4872 185.24 -65.7408 187.292L-63.8267 189.675C-58.9924 195.815 -54.1717 201.965 -49.6393 208.397C-47.3857 211.617 -45.1633 214.879 -43.056 218.251C-40.9193 221.593 -38.8956 225.033 -37.0201 228.638C-37.0127 228.663 -37.0188 228.698 -37.0439 228.705C-37.0575 228.715 -37.0807 228.711 -37.0922 228.709C-40.6373 226.724 -44.0111 224.579 -47.2855 222.344C-50.5892 220.14 -53.7874 217.812 -56.9334 215.457C-63.2211 210.725 -69.2204 205.711 -75.2062 200.687L-78.2638 198.068C-80.6869 200.043 -83.1393 201.988 -85.6158 203.916C-87.9354 205.706 -90.2645 207.483 -92.6241 209.23C-94.9627 210.993 -97.3645 212.709 -99.8444 214.328C-104.804 217.565 -109.974 220.575 -115.806 222.885C-116.114 223.009 -116.479 222.849 -116.603 222.541C-116.657 222.377 -116.638 222.202 -116.577 222.058C-113.892 216.394 -110.557 211.429 -107.011 206.691C-105.234 204.329 -103.374 202.04 -101.456 199.822C-99.5579 197.589 -97.6276 195.373 -95.6898 193.182C-93.9734 191.248 -92.2413 189.33 -90.491 187.432C-91.2834 186.727 -92.0766 186.023 -92.8731 185.322C-98.6289 180.077 -104.354 174.79 -109.794 169.245C-114.002 164.952 -113.937 158.063 -109.641 153.862C-105.344 149.662 -98.4444 149.731 -94.2358 154.024C-94.2321 154.036 -94.2185 154.056 -94.203 154.074C-94.1867 154.094 -94.1685 154.113 -94.1577 154.121ZM-151.992 287.962C-152.533 292.423 -152.567 296.784 -152.134 301.132C-152.114 301.35 -151.969 301.543 -151.758 301.628C-151.454 301.729 -151.116 301.575 -151.015 301.271L-151.011 301.248C-149.606 297.226 -148.014 293.284 -146.237 289.648C-145.345 287.843 -144.328 286.143 -143.298 284.636C-142.263 283.166 -140.98 281.977 -140.155 281.695L-140.014 281.637L-139.948 281.601L-139.816 281.529L-138.913 281.011L-138.32 280.663C-125.177 291.549 -109.868 299.836 -93.4753 305.195C-84.5554 308.121 -75.263 310.09 -65.6166 310.801C-60.7777 311.135 -55.8693 311.078 -50.847 310.445C-45.8437 309.785 -40.7043 308.626 -35.6328 306.17L-34.7217 305.736L-34.2158 305.505C-34.0821 305.452 -33.9516 305.385 -33.8207 305.318L-33.82 305.318L-33.8197 305.318C-33.6249 305.218 -33.429 305.118 -33.2198 305.063L-33.2194 305.062C-32.8769 304.945 -32.5344 304.827 -32.2013 304.696L-31.155 304.441C-29.7573 304.153 -28.2877 303.998 -26.7046 304.076C-23.5426 304.256 -20.0043 305.205 -16.3692 306.682C-12.7321 308.148 -8.99523 310.06 -5.13478 312.148C-3.20082 313.205 -1.22065 314.27 0.898207 315.36L1.2586 315.54L1.25911 315.54C3.29024 316.556 5.38672 317.604 8.25198 318.449C8.61256 318.559 9.06523 318.652 9.47924 318.737L9.48023 318.737L9.52222 318.745L9.5522 318.752L9.55292 318.753C9.7582 318.8 9.94566 318.844 10.1788 318.874L10.9632 318.953L11.7401 319.008C11.9569 319.026 12.2475 319.008 12.5133 318.99L12.597 318.985L12.6625 318.981C13.2899 318.938 13.8827 318.888 14.6414 318.642C14.9936 318.538 15.3498 318.41 15.6946 318.281L16.0025 318.157C16.1072 318.104 16.2119 318.052 16.3187 317.987L16.4798 317.885L16.6926 317.827L17.1339 317.691C18.3718 317.364 20.1541 317.394 21.9974 317.685C23.8502 317.99 25.8382 318.473 27.8363 319.101C29.5156 319.628 31.1939 320.254 32.9204 320.898L32.9216 320.898C33.2608 321.025 33.6019 321.152 33.9452 321.279L37.1666 322.469L38.0432 322.767L38.2566 322.841L38.5877 322.923L39.2401 323.075C39.9317 323.259 40.4714 323.266 41.0122 323.273L41.0129 323.273C41.2016 323.276 41.3904 323.278 41.5858 323.288C44.3844 323.166 46.6082 322.453 48.8456 321.732C53.2538 320.193 57.3476 318.277 61.2981 316.027C61.5116 315.898 61.628 315.645 61.586 315.411C61.5216 315.103 61.2111 314.905 60.8997 314.98L60.8861 314.99C56.5393 315.98 52.1565 316.905 47.8786 317.372C45.7754 317.606 43.5614 317.725 41.9017 317.407C41.7818 317.369 41.6478 317.34 41.5183 317.312C41.2697 317.259 41.0376 317.209 40.9536 317.108C40.8999 317.074 40.8558 317.055 40.8 317.033L40.7212 317.007L40.5581 316.919L39.8983 316.54L37.0892 314.84C33.2119 312.51 29.1402 310.134 24.2367 308.551C21.7731 307.793 19.0572 307.18 15.8507 307.385L14.6339 307.527L14.0234 307.609L13.3871 307.77L12.122 308.116L11.8065 308.215C11.7689 308.222 11.7215 308.236 11.6823 308.247C11.6187 308.266 11.5768 308.278 11.6345 308.244C11.7045 308.185 11.7956 308.142 11.8847 308.11C12.3876 307.965 12.3554 307.953 12.094 307.851C12.0463 307.833 11.9909 307.811 11.9299 307.785C11.8659 307.758 11.7956 307.726 11.7211 307.688C10.5326 307.133 8.7937 306.051 7.10792 304.871L1.7523 301.066C-1.94269 298.447 -5.89189 295.784 -10.3565 293.54C-12.5753 292.409 -14.9436 291.383 -17.4956 290.585C-20.0339 289.778 -22.7301 289.121 -25.6121 288.908C-28.4784 288.673 -31.5027 288.792 -34.4531 289.434L-36.6483 289.985L-38.7817 290.726C-39.2597 290.885 -39.7103 291.096 -40.1587 291.306C-40.3876 291.414 -40.616 291.521 -40.8472 291.621L-42.46 292.382C-45.396 293.884 -49.0324 294.834 -52.846 295.371C-56.6658 295.943 -60.7021 295.989 -64.775 295.838C-72.9535 295.519 -81.2522 293.928 -89.3963 291.734C-103.625 287.779 -117.347 281.586 -129.944 273.542C-129.691 273.276 -129.439 273.009 -129.188 272.74C-127.616 271.067 -126.165 269.338 -124.768 267.574C-124.063 266.688 -123.392 265.795 -122.719 264.891C-122.033 263.978 -121.417 263.123 -120.727 262.056L-120.613 261.885C-120.413 261.564 -120.225 261.24 -120.067 260.888C-118.303 256.988 -120.039 252.397 -123.945 250.633C-127.851 248.87 -132.449 250.601 -134.213 254.5C-134.435 255.002 -134.718 255.585 -135.005 256.176L-135.006 256.177L-135.006 256.177C-135.155 256.483 -135.304 256.791 -135.447 257.09C-135.878 257.977 -136.321 258.862 -136.787 259.744C-137.696 261.51 -138.626 263.261 -139.592 264.946C-140.57 266.629 -141.569 268.296 -142.608 269.789C-143.131 270.518 -143.669 271.267 -144.182 271.878L-144.579 272.367L-144.959 272.764L-145.332 273.186L-146.216 274.005C-148.675 276.377 -149.687 278.863 -150.5 281.158C-151.254 283.464 -151.68 285.732 -151.992 287.962Z" fill="#39B5E6"/>
</svg>
