<svg width="375" height="824" viewBox="0 0 375 824" fill="none" xmlns="http://www.w3.org/2000/svg">
<mask id="mask0_657_9129" style="mask-type:alpha" maskUnits="userSpaceOnUse" x="0" y="0" width="376" height="824">
<path d="M0 0H375.5V820.5C202 781.5 169.5 852.5 0 807.5V0Z" fill="#C4C4C4"/>
</mask>
<g mask="url(#mask0_657_9129)">
<path d="M718.978 -100H-1124V1135.54H718.978V-100Z" fill="#39B5E6"/>
<path d="M718.968 -99.2871H646.546L172.454 529.038C172.57 528.787 172.589 528.672 172.474 528.787C172.541 528.65 172.474 528.672 172.311 528.81L593.957 -99.2871H513.446L171.975 528.592C172.052 528.33 172.051 528.238 171.955 528.352C172.003 528.204 171.936 528.238 171.792 528.421L471.45 -99.2871H404.861L171.418 528.272C171.457 528.009 171.447 527.918 171.37 528.044C171.399 527.884 171.332 527.929 171.217 528.147L368.938 -99.2871H310.313L170.842 528.044C170.852 527.769 170.823 527.678 170.766 527.826C170.766 527.666 170.718 527.735 170.631 527.952L277.844 -99.2871H223.442L170.104 529.61C170.094 529.644 170.084 529.678 170.075 529.713C170.209 527.644 170.161 527.278 170.027 527.838L192.565 -99.2871H139.602L169.624 527.804C169.47 527.209 169.432 527.575 169.595 529.701C169.586 529.667 169.576 529.633 169.566 529.61L108.898 -99.2871H54.4183L169.019 527.964C168.933 527.746 168.885 527.689 168.876 527.815C168.818 527.678 168.799 527.781 168.808 528.067L21.7766 -99.2871H-37.3757L168.434 528.181C168.319 527.975 168.252 527.929 168.271 528.067C168.194 527.952 168.194 528.067 168.242 528.33L-73.7019 -99.2871H-141.307L167.868 528.478C167.724 528.295 167.657 528.25 167.695 528.387C167.609 528.284 167.619 528.398 167.695 528.661L-184.004 -99.2871H-266.223L167.34 528.878C167.177 528.73 167.1 528.695 167.158 528.833C167.052 528.741 167.081 528.855 167.206 529.107L-320.088 -99.2871H-428.232L166.88 529.37C166.717 529.267 166.64 529.244 166.707 529.358C166.592 529.29 166.63 529.404 166.803 529.644L-502.544 -99.2871H-660.553L166.496 529.953C166.323 529.884 166.266 529.884 166.343 529.976C166.208 529.93 166.275 530.033 166.477 530.25L-776.679 -99.2871H-1046.55L166.237 530.627C166.064 530.593 166.007 530.605 166.083 530.685C165.949 530.662 166.026 530.753 166.256 530.925L-1122.57 -35.4382V133.278L166.045 531.336C165.863 531.336 165.805 531.359 165.911 531.416C165.776 531.416 165.863 531.496 166.093 531.622L-1122.57 226.771V383.461L167.455 532.228C167.475 532.239 167.484 532.239 167.503 532.251C165.69 532.079 165.431 532.148 165.997 532.331L-1122.57 472.38V624.794L165.834 532.788C165.412 532.948 165.767 532.994 167.494 532.799C167.455 532.811 167.417 532.834 167.379 532.845L-1122.57 713.508V870.564L165.988 533.52C165.844 533.611 165.805 533.657 165.901 533.657C165.776 533.737 165.882 533.76 166.16 533.737L-1122.57 964.685V1134.83H-1121.76L166.179 534.217C166.035 534.343 165.997 534.4 166.112 534.377C166.007 534.469 166.122 534.469 166.371 534.4L-930.581 1134.82H-692.935L166.438 534.869C166.304 535.029 166.275 535.097 166.381 535.052C166.294 535.155 166.39 535.143 166.63 535.04L-589.388 1134.82H-446.961L166.774 535.486C166.659 535.669 166.63 535.749 166.736 535.692C166.659 535.818 166.765 535.772 166.985 535.623L-379.471 1134.82H-280.596L167.197 536.023C167.11 536.218 167.091 536.309 167.187 536.229C167.129 536.366 167.225 536.309 167.427 536.115L-231.067 1134.81H-155.162L167.695 536.458C167.638 536.664 167.638 536.744 167.714 536.652C167.676 536.801 167.762 536.732 167.935 536.504L-115.516 1134.81H-52.6219L168.261 536.755C168.233 536.972 168.242 537.064 168.3 536.961C168.281 537.121 168.348 537.041 168.492 536.789L-18.6561 1134.81H36.8022L168.856 536.961C168.856 537.212 168.875 537.292 168.923 537.178C168.923 537.327 168.981 537.247 169.077 536.995L67.5345 1134.81H119.021L169.605 535.36C169.614 535.326 169.624 535.303 169.634 535.269C169.49 537.361 169.547 537.715 169.682 537.121L148.256 1134.8H198.14L170.075 537.178C170.228 537.784 170.276 537.43 170.104 535.28C170.113 535.315 170.123 535.337 170.132 535.372L227.433 1134.8H278.986L170.679 537.007C170.775 537.235 170.823 537.304 170.823 537.155C170.881 537.315 170.91 537.235 170.9 536.972L309.862 1134.8H365.762L171.255 536.755C171.389 536.995 171.457 537.052 171.428 536.892C171.505 537.018 171.514 536.938 171.476 536.721L400.073 1134.8H463.86L171.792 536.458C171.965 536.686 172.052 536.744 171.994 536.572C172.08 536.675 172.09 536.606 172.032 536.412L504.101 1134.8H581.484L172.301 536.058C172.512 536.252 172.598 536.298 172.522 536.138C172.618 536.229 172.618 536.161 172.541 535.978L632.106 1134.8H718.968V1119.26L172.742 535.566C172.973 535.715 173.068 535.749 172.973 535.612C173.088 535.692 173.078 535.623 172.963 535.452L718.959 1054.85V956.237L173.097 534.995C173.347 535.097 173.443 535.109 173.337 534.995C173.452 535.04 173.433 534.983 173.308 534.834L718.968 904.792V823.212L173.366 534.354C173.615 534.411 173.721 534.411 173.606 534.309C173.73 534.343 173.711 534.274 173.567 534.16L718.978 779.186V707.369L173.548 533.668C173.827 533.68 173.932 533.657 173.788 533.577C173.903 533.577 173.874 533.531 173.73 533.44L718.968 667.574V600.958L172.33 532.799C172.291 532.777 172.243 532.765 172.195 532.742C173.846 532.902 174.21 532.857 173.836 532.708L718.959 563.163V497.623L173.759 532.228C174.316 532.045 174.038 531.976 172.195 532.182C172.215 532.171 172.234 532.171 172.253 532.159L718.959 459.839V393.189L173.625 531.508C173.846 531.382 173.913 531.313 173.769 531.325C173.894 531.256 173.836 531.222 173.644 531.233L718.959 353.28V280.994L173.433 530.822C173.644 530.65 173.702 530.57 173.558 530.605C173.654 530.524 173.596 530.502 173.424 530.536L718.959 236.625V154.153L173.184 530.204C173.376 529.999 173.423 529.896 173.28 529.953C173.375 529.85 173.318 529.839 173.145 529.907L718.959 102.057V1.86505L172.877 529.587C173.04 529.347 173.068 529.244 172.934 529.336C173.011 529.21 172.953 529.221 172.79 529.324L718.978 -63.7215V-99.2871H718.968Z" fill="url(#paint0_radial_657_9129)"/>
</g>
<defs>
<radialGradient id="paint0_radial_657_9129" cx="0" cy="0" r="1" gradientUnits="userSpaceOnUse" gradientTransform="translate(-29.8091 512.593) rotate(0.76524) scale(404.845 576.594)">
<stop stop-color="#8BD6F3"/>
<stop offset="1" stop-color="#39B5E6"/>
<stop offset="1" stop-color="#24A6DA"/>
</radialGradient>
</defs>
</svg>
