<svg width="415" height="429" viewBox="0 0 415 429" fill="none" xmlns="http://www.w3.org/2000/svg">
<mask id="mask0_1875_5512" style="mask-type:alpha" maskUnits="userSpaceOnUse" x="0" y="0" width="415" height="429">
<rect width="414.548" height="428.57" fill="#C4C4C4"/>
</mask>
<g mask="url(#mask0_1875_5512)">
<path d="M573.582 -175.573H-597.438V609.02H573.582V-175.573Z" fill="url(#paint0_radial_1875_5512)"/>
<path d="M573.433 -175.421H527.419L226.194 223.883C226.268 223.723 226.28 223.651 226.207 223.723C226.249 223.636 226.207 223.651 226.103 223.738L494.005 -175.421H442.851L225.89 223.6C225.938 223.433 225.938 223.374 225.877 223.447C225.908 223.353 225.865 223.374 225.774 223.491L416.167 -175.421H373.859L225.536 223.396C225.56 223.229 225.554 223.171 225.506 223.251C225.524 223.149 225.481 223.178 225.408 223.316L351.034 -175.421H313.786L225.17 223.251C225.176 223.077 225.158 223.018 225.121 223.113C225.121 223.011 225.091 223.055 225.036 223.193L293.156 -175.421H258.59L224.701 224.246C224.695 224.268 224.689 224.29 224.683 224.312C224.768 222.997 224.737 222.764 224.652 223.12L238.972 -175.421H205.321L224.396 223.098C224.298 222.721 224.274 222.953 224.378 224.304C224.372 224.283 224.366 224.261 224.359 224.246L185.813 -175.421H151.198L224.012 223.2C223.957 223.062 223.927 223.026 223.921 223.106C223.884 223.018 223.872 223.084 223.878 223.265L130.458 -175.421H92.8745L223.64 223.338C223.567 223.207 223.524 223.178 223.536 223.265C223.488 223.193 223.488 223.265 223.518 223.433L69.7939 -175.421H26.8394L223.28 223.527C223.189 223.411 223.146 223.382 223.171 223.469C223.116 223.404 223.122 223.476 223.171 223.643L-0.289124 -175.421H-52.5283L222.945 223.781C222.841 223.687 222.793 223.665 222.829 223.752C222.762 223.694 222.78 223.767 222.86 223.927L-86.7529 -175.421H-155.464L222.652 224.094C222.549 224.028 222.5 224.014 222.543 224.086C222.47 224.043 222.494 224.115 222.604 224.268L-202.68 -175.421H-303.074L222.409 224.464C222.299 224.421 222.262 224.421 222.311 224.479C222.226 224.45 222.268 224.515 222.396 224.653L-376.857 -175.421H-548.328L222.244 224.893C222.134 224.871 222.098 224.878 222.146 224.929C222.061 224.915 222.11 224.973 222.256 225.082L-596.629 -134.845V-27.6245L222.122 225.343C222.006 225.343 221.97 225.358 222.037 225.394C221.951 225.394 222.006 225.445 222.153 225.525L-596.629 31.7906V131.368L223.018 225.91C223.03 225.917 223.037 225.917 223.049 225.925C221.897 225.816 221.732 225.859 222.092 225.975L-596.629 187.877V284.737L221.988 226.266C221.72 226.368 221.945 226.397 223.043 226.273C223.018 226.281 222.994 226.295 222.969 226.302L-596.629 341.115V440.924L222.086 226.731C221.994 226.789 221.97 226.818 222.031 226.818C221.951 226.869 222.018 226.884 222.195 226.869L-596.629 500.739V608.867H-596.111L222.207 227.174C222.116 227.254 222.092 227.29 222.165 227.276C222.098 227.334 222.171 227.334 222.329 227.29L-474.642 608.86H-323.649L222.372 227.588C222.287 227.69 222.268 227.734 222.335 227.705C222.281 227.77 222.342 227.763 222.494 227.697L-257.858 608.86H-167.364L222.585 227.981C222.512 228.097 222.494 228.148 222.561 228.111C222.512 228.191 222.579 228.162 222.719 228.068L-124.483 608.86H-61.6606L222.854 228.322C222.799 228.446 222.787 228.504 222.848 228.453C222.811 228.54 222.872 228.504 223 228.38L-30.1915 608.853H18.0363L223.171 228.598C223.134 228.729 223.134 228.78 223.183 228.722C223.158 228.816 223.213 228.772 223.323 228.627L43.2263 608.853H83.1874L223.53 228.787C223.512 228.925 223.518 228.983 223.555 228.918C223.542 229.02 223.585 228.969 223.677 228.809L104.768 608.853H140.005L223.908 228.918C223.908 229.078 223.92 229.129 223.951 229.056C223.951 229.15 223.988 229.099 224.049 228.94L159.531 608.853H192.244L224.384 227.901C224.39 227.879 224.396 227.864 224.402 227.843C224.311 229.172 224.347 229.397 224.433 229.02L210.82 608.845H242.514L224.683 229.056C224.78 229.441 224.811 229.216 224.701 227.85C224.707 227.872 224.713 227.886 224.719 227.908L261.126 608.845H293.882L225.067 228.947C225.128 229.092 225.158 229.136 225.158 229.041C225.195 229.143 225.213 229.092 225.207 228.925L313.499 608.845H349.017L225.432 228.787C225.518 228.94 225.56 228.976 225.542 228.874C225.591 228.954 225.597 228.903 225.573 228.765L370.817 608.845H411.345L225.774 228.598C225.883 228.743 225.938 228.78 225.902 228.671C225.957 228.736 225.963 228.693 225.926 228.569L436.913 608.845H486.079L226.097 228.344C226.231 228.467 226.286 228.496 226.237 228.395C226.298 228.453 226.298 228.409 226.249 228.293L518.244 608.845H573.433V598.972L226.377 228.031C226.524 228.126 226.585 228.148 226.524 228.061C226.597 228.111 226.591 228.068 226.517 227.959L573.427 558.04V495.37L226.603 227.668C226.761 227.734 226.822 227.741 226.755 227.668C226.828 227.697 226.816 227.661 226.737 227.566L573.433 462.676V410.832L226.774 227.261C226.932 227.298 226.999 227.298 226.926 227.232C227.005 227.254 226.993 227.21 226.902 227.138L573.439 382.853V337.213L226.889 226.825C227.066 226.833 227.133 226.818 227.042 226.767C227.115 226.767 227.097 226.738 227.005 226.68L573.433 311.923V269.589L226.115 226.273C226.091 226.259 226.06 226.251 226.03 226.237C227.078 226.339 227.31 226.31 227.072 226.215L573.427 245.57V203.918L227.023 225.91C227.377 225.794 227.2 225.75 226.03 225.881C226.042 225.874 226.054 225.874 226.066 225.866L573.427 179.907V137.55L226.938 225.452C227.078 225.372 227.121 225.329 227.03 225.336C227.109 225.292 227.072 225.271 226.95 225.278L573.427 112.188V66.2495L226.816 225.016C226.95 224.907 226.987 224.857 226.895 224.878C226.956 224.828 226.92 224.813 226.81 224.835L573.427 38.0532V-14.3582L226.658 224.624C226.78 224.493 226.81 224.428 226.719 224.464C226.78 224.399 226.743 224.392 226.633 224.435L573.427 -47.4658V-111.138L226.463 224.232C226.566 224.079 226.585 224.014 226.499 224.072C226.548 223.992 226.511 223.999 226.408 224.065L573.439 -152.819V-175.421H573.433Z" fill="url(#paint1_radial_1875_5512)"/>
</g>
<defs>
<radialGradient id="paint0_radial_1875_5512" cx="0" cy="0" r="1" gradientUnits="userSpaceOnUse" gradientTransform="translate(220.682 216.72) rotate(-0.0894998) scale(192.951 230.593)">
<stop stop-color="#D6C42A"/>
<stop offset="0.9808" stop-color="#678F18"/>
</radialGradient>
<radialGradient id="paint1_radial_1875_5512" cx="0" cy="0" r="1" gradientUnits="userSpaceOnUse" gradientTransform="translate(235.147 213.432) scale(179.094 212.964)">
<stop stop-color="#E6D12E"/>
<stop offset="0.9808" stop-color="#A3AE22"/>
</radialGradient>
</defs>
</svg>
