<svg width="32" height="32" viewBox="0 0 32 32" fill="none" xmlns="http://www.w3.org/2000/svg">
<path fill-rule="evenodd" clip-rule="evenodd" d="M18.8287 14.9773H22.5192C23.0787 14.9773 23.5184 14.5147 23.5184 13.9568C23.5184 13.3853 23.0787 12.9363 22.5192 12.9363H18.8287C18.2692 12.9363 17.8295 13.3853 17.8295 13.9568C17.8295 14.5147 18.2692 14.9773 18.8287 14.9773ZM26.9024 7.90316C27.7151 7.90316 28.248 8.1889 28.781 8.81482C29.3139 9.44073 29.4071 10.3388 29.2872 11.1538L28.0216 20.0799C27.7817 21.7957 26.3429 23.0598 24.6508 23.0598H10.1155C8.34356 23.0598 6.87803 21.6732 6.73148 19.8771L5.50577 5.04438L3.494 4.6906C2.96109 4.59535 2.58804 4.06469 2.6813 3.52042C2.77456 2.9639 3.29416 2.59515 3.8404 2.67815L7.01792 3.16664C7.4709 3.24964 7.80398 3.62927 7.84395 4.0919L8.09708 7.13982C8.13705 7.5766 8.48345 7.90316 8.90978 7.90316H26.9024ZM9.90207 25.2103C8.78294 25.2103 7.87698 26.1356 7.87698 27.2786C7.87698 28.4079 8.78294 29.3332 9.90207 29.3332C11.0079 29.3332 11.9138 28.4079 11.9138 27.2786C11.9138 26.1356 11.0079 25.2103 9.90207 25.2103ZM24.8904 25.2103C23.7713 25.2103 22.8653 26.1356 22.8653 27.2786C22.8653 28.4079 23.7713 29.3332 24.8904 29.3332C25.9962 29.3332 26.9022 28.4079 26.9022 27.2786C26.9022 26.1356 25.9962 25.2103 24.8904 25.2103Z" fill="#EA1A77"/>
</svg>
