<svg width="380" height="454" viewBox="0 0 380 454" fill="none" xmlns="http://www.w3.org/2000/svg">
<path fill-rule="evenodd" clip-rule="evenodd" d="M97.7876 425.317C93.637 417.939 90.2541 415.189 87.8828 414.164L70.2075 419.206C68.8678 420.008 67.5902 420.816 66.4223 421.57C55.6047 428.467 43.0519 432.272 31.1135 432.272C18.9177 432.272 9.21257 428.359 3.72489 421.214C-3.48963 411.83 1.07652 400.358 6.46458 387.021C10.8315 376.104 15.7629 363.728 15.7629 350.739V150.183C15.7629 51.6 103.981 0 191.028 0C274.008 0 363.247 47.0244 363.247 150.183V350.739C363.247 363.67 368.177 375.985 372.528 386.853L372.595 387.021C377.925 400.358 382.5 411.83 375.293 421.264C369.806 428.359 360.1 432.272 347.955 432.272C335.958 432.272 323.405 428.467 312.579 421.57C307.299 418.114 299.62 413.555 294.29 413.555C292.712 413.555 287.889 413.555 281.231 425.317C270.562 444.042 257.346 453.525 241.904 453.525C230.214 453.525 218.326 448.096 205.516 436.889C197.546 429.934 181.423 430.034 173.503 436.889C143.723 462.817 116.484 458.15 97.7876 425.317ZM33.4694 379.812L28.8453 389.046C30.4595 384.873 32.0811 380.407 33.4694 375.678V379.812ZM209.607 111.739C215.801 115.486 221.72 119.614 227.556 123.875C229.26 125.125 230.953 126.389 232.638 127.667C235.727 123.481 238.871 119.341 242.271 115.401C245.069 112.16 249.975 111.796 253.23 114.589C256.335 117.258 256.791 121.875 254.384 125.108C251.297 129.231 247.967 133.157 244.575 137.032L244.725 137.154C250.337 141.738 255.95 146.338 261.238 151.386C263.886 153.915 266.46 156.542 268.959 159.294C271.449 162.046 273.857 164.931 276.065 168.089C276.082 168.106 276.074 168.13 276.057 168.139C276.053 168.143 276.046 168.145 276.04 168.146C276.034 168.147 276.028 168.147 276.024 168.147C272.271 167.235 268.71 166.042 265.231 164.732C261.761 163.414 258.374 161.963 255.053 160.422C248.419 157.33 242.093 153.782 235.775 150.226C235.04 149.808 234.305 149.388 233.572 148.967C232.874 149.692 232.173 150.415 231.47 151.136C227.418 155.289 223.259 159.35 218.925 163.28C216.759 165.244 214.534 167.159 212.267 169.041C209.984 170.914 207.693 172.771 205.227 174.495C205.036 174.627 204.779 174.578 204.637 174.395C204.546 174.279 204.53 174.13 204.588 173.997C205.742 171.221 207.062 168.585 208.398 165.957C209.752 163.346 211.138 160.751 212.599 158.223C215.505 153.15 218.577 148.21 221.765 143.369C221.985 143.032 222.207 142.696 222.428 142.36C220.661 141.278 218.903 140.184 217.154 139.077C211.06 135.189 205.058 131.177 199.313 126.776C195.311 123.709 194.556 117.981 197.627 113.986C200.475 110.272 205.672 109.377 209.607 111.739ZM133.536 117.239C137.978 120.489 142.253 123.962 146.512 127.451C146.989 127.856 147.467 128.259 147.945 128.662C149.049 127.162 150.181 125.683 151.357 124.239C153.507 121.595 157.401 121.197 160.049 123.344C162.556 125.383 163.03 128.997 161.245 131.617C160.027 133.396 158.745 135.129 157.429 136.836L159.057 138.26C163.183 141.941 167.301 145.63 171.252 149.55C173.22 151.515 175.171 153.513 177.056 155.601C178.957 157.665 180.792 159.812 182.543 162.092C182.549 162.103 182.551 162.117 182.547 162.128C182.545 162.134 182.541 162.139 182.535 162.142C182.527 162.15 182.51 162.15 182.502 162.15C179.787 161.205 177.172 160.127 174.615 158.975C172.041 157.848 169.526 156.621 167.043 155.369C162.079 152.849 157.28 150.097 152.49 147.337L150.036 145.89C148.592 147.565 147.124 149.224 145.637 150.872C144.242 152.406 142.839 153.931 141.411 155.44C140 156.957 138.538 158.449 137.011 159.883C133.956 162.751 130.726 165.486 126.949 167.815C126.749 167.94 126.475 167.874 126.351 167.675C126.293 167.567 126.285 167.442 126.309 167.335C127.48 163.057 129.19 159.186 131.075 155.448C132.021 153.583 133.034 151.759 134.097 149.977C135.143 148.187 136.214 146.405 137.293 144.639C138.25 143.08 139.22 141.53 140.205 139.992C139.566 139.598 138.926 139.206 138.285 138.816C133.627 135.873 128.986 132.897 124.512 129.706C121.05 127.236 120.244 122.428 122.718 118.972C125.192 115.515 130.008 114.711 133.47 117.181C133.478 117.198 133.519 117.231 133.536 117.239ZM109.779 217.619C109.953 220.793 110.468 223.836 111.307 226.811C111.348 226.961 111.473 227.077 111.63 227.11C111.854 227.143 112.07 226.994 112.104 226.77V226.753C112.585 223.778 113.208 220.835 113.996 218.083C114.395 216.715 114.893 215.405 115.424 214.228C115.964 213.076 116.711 212.09 117.251 211.791L117.342 211.733L117.384 211.7L117.467 211.634L118.031 211.161L118.402 210.846C128.902 216.806 140.59 220.688 152.671 222.396C159.247 223.333 165.963 223.556 172.771 222.86C176.183 222.495 179.595 221.849 183.016 220.788C186.42 219.71 189.857 218.268 193.086 215.93L193.667 215.516L193.991 215.292C194.078 215.239 194.161 215.176 194.244 215.113C194.367 215.02 194.491 214.925 194.63 214.861C194.854 214.737 195.079 214.612 195.294 214.48L195.992 214.173C196.93 213.8 197.935 213.51 199.047 213.369C201.272 213.104 203.854 213.328 206.569 213.908C209.283 214.48 212.123 215.35 215.07 216.328C216.548 216.826 218.059 217.323 219.669 217.82L219.943 217.901L219.943 217.901C221.483 218.358 223.073 218.829 225.174 219.064C225.439 219.096 225.766 219.105 226.065 219.113L226.095 219.113L226.117 219.115C226.266 219.122 226.402 219.13 226.568 219.122L227.125 219.08L227.673 219.022C227.826 219.008 228.026 218.959 228.209 218.915L228.209 218.915C228.244 218.906 228.279 218.898 228.312 218.89C228.744 218.782 229.15 218.674 229.648 218.409C229.881 218.293 230.113 218.16 230.338 218.028L230.537 217.903L230.537 217.903C230.603 217.853 230.67 217.804 230.736 217.746L230.836 217.654L230.977 217.588L231.267 217.439C232.089 217.058 233.335 216.859 234.655 216.834C235.983 216.817 237.428 216.908 238.897 217.099C240.132 217.258 241.379 217.487 242.661 217.723C242.913 217.769 243.167 217.815 243.422 217.862L245.813 218.293L246.46 218.392L246.618 218.417L246.859 218.434L247.332 218.459C247.837 218.502 248.213 218.44 248.591 218.378C248.723 218.356 248.855 218.335 248.992 218.318C250.927 217.887 252.388 217.116 253.857 216.337C256.738 214.72 259.353 212.88 261.827 210.824C261.96 210.708 262.01 210.518 261.952 210.36C261.869 210.153 261.628 210.053 261.421 210.145L261.412 210.153C258.507 211.38 255.568 212.565 252.645 213.419C251.209 213.841 249.681 214.198 248.486 214.181C248.398 214.17 248.301 214.166 248.208 214.163H248.207H248.207C248.027 214.156 247.86 214.15 247.789 214.09C247.747 214.074 247.714 214.065 247.672 214.057L247.614 214.049L247.49 214.007L246.983 213.825L244.816 212.988C241.828 211.844 238.698 210.692 235.086 210.194C233.277 209.97 231.309 209.879 229.101 210.418L228.27 210.667L227.855 210.799L227.432 210.99L226.593 211.388L226.386 211.496C226.36 211.505 226.329 211.521 226.303 211.533C226.261 211.554 226.234 211.568 226.27 211.537C226.311 211.487 226.369 211.446 226.427 211.413C226.76 211.25 226.736 211.245 226.541 211.207C226.468 211.192 226.372 211.173 226.261 211.139C225.365 210.899 224.02 210.36 222.7 209.747L218.499 207.757C215.601 206.39 212.521 205.022 209.134 204.011C207.449 203.497 205.672 203.074 203.796 202.833C201.928 202.585 199.969 202.46 197.935 202.668C195.909 202.858 193.817 203.314 191.841 204.127L190.38 204.781L188.985 205.561C188.672 205.731 188.384 205.934 188.097 206.135C187.951 206.238 187.805 206.341 187.657 206.439L186.627 207.169C184.767 208.578 182.351 209.689 179.761 210.534C177.171 211.404 174.365 211.935 171.509 212.333C165.772 213.12 159.795 213.037 153.85 212.515C143.45 211.517 133.126 208.898 123.357 204.85C123.501 204.634 123.643 204.416 123.785 204.199C124.673 202.839 125.47 201.455 126.225 200.054C126.607 199.349 126.964 198.645 127.321 197.932C127.687 197.211 128.01 196.539 128.359 195.71L128.417 195.578C128.517 195.329 128.608 195.08 128.674 194.815C129.422 191.881 127.645 188.897 124.706 188.151C121.767 187.405 118.778 189.179 118.031 192.113C117.938 192.49 117.813 192.931 117.686 193.379C117.62 193.61 117.554 193.843 117.492 194.069C117.301 194.741 117.101 195.412 116.886 196.083C116.47 197.426 116.039 198.761 115.574 200.054C115.101 201.347 114.611 202.632 114.071 203.801C113.797 204.373 113.515 204.961 113.233 205.45L113.017 205.84L112.801 206.163L112.593 206.503L112.079 207.183C110.659 209.139 110.26 210.996 109.978 212.695C109.737 214.394 109.721 216.027 109.779 217.619Z" fill="url(#paint0_diamond_2_160)"/>
<defs>
<radialGradient id="paint0_diamond_2_160" cx="0" cy="0" r="1" gradientUnits="userSpaceOnUse" gradientTransform="translate(172.23 8.62103) rotate(84.7563) scale(497.7 879.14)">
<stop stop-color="#EA1A77"/>
<stop offset="1" stop-color="#39B5E6"/>
</radialGradient>
</defs>
</svg>
