<svg width="177" height="125" viewBox="0 0 177 125" fill="none" xmlns="http://www.w3.org/2000/svg">
<path d="M70.2251 0C21.7657 12.0033 0 45.1159 0 75.3311C0 105.132 18.0696 125 41.478 125C62.8329 125 80.9025 108.444 81.3132 87.3344C81.3132 69.1225 67.3503 55.8775 50.1021 52.5662C43.5313 50.9106 39.0139 47.1854 39.0139 40.149C39.0139 31.043 45.5847 18.2119 69.4037 9.10597L70.2251 0ZM165.912 0C117.452 12.0033 95.6868 45.1159 95.6868 75.3311C95.6868 105.132 113.756 125 137.165 125C158.52 125 176.589 108.444 177 87.3344C177 69.1225 163.037 55.8775 145.789 52.5662C139.218 50.9106 134.701 47.1854 134.701 40.149C134.701 31.043 141.271 18.2119 165.09 9.10597L165.912 0Z" fill="white" fill-opacity="0.25"/>
</svg>
