<svg width="32" height="32" viewBox="0 0 32 32" fill="none" xmlns="http://www.w3.org/2000/svg">
<path fill-rule="evenodd" clip-rule="evenodd" d="M27.4428 26.3884L27.4386 26.3778C27.1648 25.693 26.8546 24.9169 26.8546 24.1021V11.4639C26.8546 4.96328 21.2399 2 16.0191 2C10.5422 2 4.99178 5.25161 4.99178 11.4639V24.1021C4.99178 24.9206 4.6815 25.7005 4.40675 26.3884C4.06774 27.2289 3.78045 27.9518 4.23437 28.5431C4.57964 28.9933 5.19027 29.2399 5.9576 29.2399C6.70873 29.2399 7.49852 29.0001 8.17914 28.5655C8.22019 28.539 8.26338 28.5114 8.30821 28.4834L9.57544 28.1213C9.7211 28.2005 9.91722 28.3826 10.1526 28.8016C11.3289 30.8707 13.0427 31.1647 14.9164 29.5308C15.4147 29.0989 16.4291 29.0926 16.9305 29.5308C17.7365 30.2371 18.4845 30.5792 19.22 30.5792C20.1916 30.5792 21.0231 29.9816 21.6944 28.8016C22.1133 28.0604 22.4168 28.0604 22.516 28.0604C22.8514 28.0604 23.3345 28.3477 23.6667 28.5655C24.3479 29.0001 25.1377 29.2399 25.8925 29.2399C26.6567 29.2399 27.2673 28.9933 27.6125 28.5462C28.0659 27.9518 27.7781 27.2289 27.4428 26.3884ZM17.1881 9.04181C17.5778 9.27791 17.9502 9.53804 18.3174 9.80653C18.4246 9.88527 18.5311 9.96489 18.637 10.0453C18.8313 9.78166 19.0291 9.52077 19.243 9.27258C19.419 9.06834 19.7277 9.04536 19.9325 9.22139C20.1278 9.38958 20.1565 9.68053 20.0051 9.88425C19.8109 10.144 19.6014 10.3914 19.388 10.6355L19.3977 10.6433C19.7508 10.9322 20.1039 11.2221 20.4366 11.5402C20.6032 11.6995 20.7652 11.8651 20.9224 12.0385C21.0791 12.2119 21.2306 12.3937 21.3695 12.5927C21.3706 12.5938 21.37 12.5953 21.369 12.5959C21.3687 12.5962 21.3682 12.5963 21.3677 12.5964L21.3669 12.5964C21.1308 12.5389 20.9067 12.4637 20.6879 12.3812C20.4695 12.2981 20.2564 12.2067 20.0475 12.1096C19.6301 11.9147 19.2321 11.6912 18.8346 11.4671C18.7882 11.4407 18.742 11.4142 18.6958 11.3876C18.6518 11.4334 18.6077 11.4789 18.5634 11.5244C18.3085 11.7861 18.0468 12.0421 17.7741 12.2897C17.6378 12.4135 17.4978 12.5341 17.3552 12.6527C17.2115 12.7707 17.0674 12.8877 16.9122 12.9964C16.9002 13.0047 16.884 13.0016 16.8752 12.9901C16.8694 12.9828 16.8684 12.9734 16.872 12.9651C16.9446 12.7901 17.0277 12.624 17.1118 12.4584C17.1969 12.2938 17.2842 12.1303 17.3761 11.971C17.5589 11.6513 17.7522 11.34 17.9528 11.035L17.9946 10.9713C17.8835 10.9031 17.7729 10.8342 17.6629 10.7645C17.2795 10.5195 16.9019 10.2667 16.5404 9.98935C16.2886 9.79608 16.2411 9.43514 16.4344 9.18337C16.6135 8.94936 16.9405 8.89294 17.1881 9.04181ZM12.4013 9.38839C12.6808 9.59315 12.9498 9.81201 13.2177 10.0319L13.3081 10.1084C13.3776 10.0136 13.449 9.92018 13.5232 9.82903C13.6585 9.6624 13.9034 9.63733 14.0701 9.77262C14.2278 9.90111 14.2576 10.1289 14.1453 10.2939C14.0685 10.4062 13.9877 10.5157 13.9047 10.6235L14.007 10.7131C14.2666 10.945 14.5257 11.1774 14.7743 11.4245C14.8981 11.5483 15.0209 11.6742 15.1394 11.8058C15.2591 11.9359 15.3745 12.0712 15.4847 12.2148C15.4852 12.2159 15.4852 12.2174 15.4842 12.2179L15.4834 12.2184L15.4821 12.2185C15.3113 12.1589 15.1468 12.091 14.9859 12.0184C14.8239 11.9474 14.6657 11.8701 14.5095 11.7912C14.1971 11.6324 13.8952 11.459 13.5938 11.285L13.4396 11.1939C13.3489 11.2993 13.2567 11.4036 13.1633 11.5073C13.0755 11.604 12.9872 11.7001 12.8974 11.7951C12.8086 11.8907 12.7167 11.9848 12.6206 12.0751C12.4283 12.2559 12.2251 12.4282 11.9875 12.575C11.9749 12.5828 11.9577 12.5787 11.9499 12.5661C11.9462 12.5593 11.9457 12.5515 11.9473 12.5447C12.0209 12.2752 12.1285 12.0312 12.2471 11.7957C12.3066 11.6781 12.3704 11.5632 12.4372 11.4509C12.503 11.3381 12.5704 11.2258 12.6383 11.1145C12.6984 11.0165 12.7593 10.919 12.8211 10.8223C12.7808 10.7975 12.7405 10.7727 12.7001 10.7481C12.407 10.5626 12.1151 10.3751 11.8335 10.174C11.6157 10.0183 11.565 9.71538 11.7207 9.49756C11.8763 9.27974 12.1793 9.22907 12.3971 9.38473C12.3976 9.38578 12.4003 9.38787 12.4013 9.38839ZM10.9068 15.7134C10.9178 15.9134 10.9502 16.1051 11.0029 16.2927C11.0055 16.3021 11.0134 16.3094 11.0233 16.3115C11.0374 16.3136 11.051 16.3042 11.0531 16.2901V16.289C11.0834 16.1015 11.1225 15.9161 11.1722 15.7426C11.1972 15.6564 11.2286 15.5739 11.262 15.4997C11.296 15.4271 11.343 15.365 11.3769 15.3462L11.3827 15.3425L11.3853 15.3404L11.3905 15.3362L11.426 15.3065L11.4491 15.2868C12.1099 15.6625 12.8454 15.9073 13.6058 16.0149C14.0195 16.0739 14.4421 16.088 14.8704 16.0442C15.0851 16.0212 15.2998 15.9804 15.515 15.9136C15.7291 15.8457 15.9454 15.7548 16.1486 15.6075L16.1851 15.5814L16.2055 15.5673C16.211 15.5639 16.2162 15.56 16.2214 15.556C16.2292 15.5501 16.237 15.5442 16.2457 15.5401L16.2458 15.5401C16.2599 15.5322 16.274 15.5244 16.2875 15.5161L16.3314 15.4967C16.3904 15.4732 16.4536 15.455 16.5236 15.4461C16.6636 15.4294 16.8261 15.4435 16.9969 15.48C17.1677 15.5161 17.3463 15.5709 17.5317 15.6326C17.6247 15.6639 17.7198 15.6952 17.8211 15.7266L17.8383 15.7317C17.9353 15.7604 18.0353 15.7901 18.1674 15.8049C18.1841 15.807 18.2047 15.8075 18.2235 15.808L18.2254 15.8081L18.2268 15.8081C18.2362 15.8086 18.2447 15.8091 18.2552 15.8086L18.2902 15.806L18.3247 15.8023C18.3343 15.8014 18.3469 15.7984 18.3584 15.7955L18.3649 15.794C18.3921 15.7872 18.4176 15.7804 18.449 15.7637C18.4636 15.7564 18.4782 15.748 18.4923 15.7396L18.5049 15.7318C18.5091 15.7287 18.5132 15.7255 18.5174 15.7219L18.5237 15.7161L18.5326 15.712L18.5508 15.7026C18.6026 15.6785 18.6809 15.666 18.764 15.6644C18.8475 15.6634 18.9384 15.6691 19.0309 15.6811C19.1086 15.6912 19.187 15.7056 19.2677 15.7204L19.2677 15.7204L19.3156 15.7292L19.466 15.7564L19.5067 15.7626L19.5167 15.7642L19.5318 15.7652L19.5616 15.7668C19.5933 15.7695 19.617 15.7656 19.6408 15.7617C19.6491 15.7604 19.6574 15.759 19.6661 15.7579C19.7878 15.7308 19.8797 15.6822 19.9722 15.6331C20.1534 15.5312 20.3179 15.4153 20.4736 15.2857C20.482 15.2784 20.4851 15.2664 20.4814 15.2565C20.4762 15.2434 20.4611 15.2371 20.448 15.2429L20.4475 15.2434C20.2647 15.3207 20.0798 15.3954 19.8959 15.4492C19.8055 15.4759 19.7094 15.4983 19.6342 15.4973C19.6287 15.4966 19.6226 15.4963 19.6167 15.4961H19.6167C19.6053 15.4957 19.5948 15.4953 19.5903 15.4915C19.5896 15.4912 19.5889 15.491 19.5883 15.4908C19.5865 15.4902 19.5849 15.4898 19.583 15.4894L19.5794 15.4889L19.5715 15.4863L19.5397 15.4748L19.4033 15.4221C19.2153 15.35 19.0183 15.2774 18.7911 15.246C18.6773 15.2319 18.5535 15.2262 18.4145 15.2601L18.3623 15.2758L18.3362 15.2842L18.3095 15.2962L18.2568 15.3212L18.2437 15.328C18.2421 15.3286 18.2401 15.3296 18.2385 15.3304C18.2359 15.3317 18.2341 15.3326 18.2364 15.3306C18.239 15.3275 18.2427 15.3249 18.2463 15.3228C18.2672 15.3125 18.2657 15.3122 18.2535 15.3098C18.2489 15.3089 18.2428 15.3077 18.2359 15.3056C18.1795 15.2904 18.0948 15.2565 18.0118 15.2178L17.7475 15.0925C17.5652 15.0063 17.3714 14.9201 17.1583 14.8563C17.0522 14.824 16.9405 14.7973 16.8224 14.7822C16.7049 14.7665 16.5816 14.7587 16.4536 14.7717C16.3262 14.7837 16.1945 14.8125 16.0702 14.8637L15.9783 14.9049L15.8905 14.954C15.8708 14.9647 15.8527 14.9775 15.8347 14.9902C15.8255 14.9967 15.8163 15.0032 15.807 15.0094L15.7422 15.0554C15.6252 15.1442 15.4732 15.2142 15.3102 15.2674C15.1472 15.3223 14.9707 15.3557 14.791 15.3808C14.43 15.4304 14.054 15.4252 13.68 15.3923C13.0254 15.3294 12.3757 15.1643 11.7609 14.9091L11.788 14.8677C11.8439 14.782 11.894 14.6948 11.9416 14.6065C11.9656 14.5621 11.9881 14.5177 12.0105 14.4728C12.0335 14.4274 12.0539 14.3851 12.0758 14.3328L12.0795 14.3245C12.0857 14.3088 12.0915 14.2931 12.0957 14.2764C12.1427 14.0915 12.0309 13.9034 11.846 13.8564C11.6611 13.8094 11.473 13.9212 11.426 14.1061C11.4202 14.1299 11.4123 14.1577 11.4043 14.1859L11.3921 14.2294C11.3801 14.2717 11.3675 14.314 11.3539 14.3563C11.3278 14.4409 11.3007 14.525 11.2714 14.6065C11.2416 14.688 11.2108 14.769 11.1769 14.8426C11.1596 14.8787 11.1419 14.9158 11.1241 14.9466L11.1105 14.9711L11.0969 14.9915L11.0839 15.0129L11.0515 15.0557C10.9622 15.179 10.9371 15.296 10.9193 15.4031C10.9042 15.5102 10.9032 15.6131 10.9068 15.7134Z" fill="#D0DC00"/>
</svg>
