<svg width="22" height="26" viewBox="0 0 22 26" fill="none" xmlns="http://www.w3.org/2000/svg">
<path d="M19.9148 23.5467C19.47 23.5467 18.9758 23.3922 18.5624 23.1252C18.0592 22.8026 17.4634 22.4704 16.8437 22.4704C16.1139 22.4704 15.5175 22.8952 15.0229 23.771C14.6446 24.431 14.2521 24.7626 13.8449 24.7626C13.499 24.7626 13.0595 24.5388 12.5767 24.1174C12.1234 23.7187 11.5095 23.4977 10.8518 23.4977C10.2004 23.4977 9.5698 23.7249 9.12172 24.114C8.63277 24.5355 8.19371 24.7626 7.84445 24.7626C7.69287 24.7626 7.23386 24.7626 6.67268 23.771C6.1785 22.8981 5.58216 22.4704 4.85182 22.4704C4.22935 22.4704 3.63301 22.8026 3.13265 23.1252C2.71688 23.3927 2.22222 23.5467 1.78031 23.5467C1.48951 23.5467 1.32082 23.4825 1.24194 23.4336C1.26808 23.2616 1.40778 22.9128 1.51564 22.6448C1.79172 21.9525 2.13812 21.0891 2.13812 20.1059V8.60917C2.13812 5.05773 4.89221 1.23592 10.9331 1.23592C15.0861 1.23592 19.5536 3.54478 19.5536 8.60917V20.1059C19.5536 21.0886 19.8996 21.9496 20.1761 22.6448C20.2835 22.9128 20.4261 23.2644 20.4517 23.4336C20.3657 23.4882 20.1856 23.5467 19.9148 23.5467ZM21.3256 22.1858C21.0756 21.5605 20.7905 20.851 20.7905 20.1059V8.60917C20.7905 2.69565 15.6829 0 10.9335 0C5.95137 0 0.902194 2.95795 0.902194 8.60917V20.1059C0.902194 20.8505 0.619942 21.56 0.370002 22.1858C0.061615 22.9503 -0.19973 23.608 0.213195 24.1459C0.527283 24.5555 1.08276 24.7797 1.78079 24.7797C2.46408 24.7797 3.18254 24.5616 3.80169 24.1663C4.10723 23.9686 4.54391 23.7068 4.8523 23.7068C4.95113 23.7068 5.21818 23.7068 5.59689 24.3811C6.66698 26.2632 8.22602 26.5308 9.93046 25.0444C10.3838 24.6514 11.3066 24.6457 11.7627 25.0444C12.4959 25.6868 13.1764 25.9981 13.8454 25.9981C14.7292 25.9981 15.4857 25.4545 16.0963 24.3811C16.4774 23.7068 16.7535 23.7068 16.8437 23.7068C17.1488 23.7068 17.5883 23.9681 17.8905 24.1663C18.5102 24.5616 19.2286 24.7797 19.9152 24.7797C20.6104 24.7797 21.1659 24.5555 21.48 24.1487C21.8924 23.608 21.6306 22.9503 21.3256 22.1858Z" fill="black"/>
<path d="M7.6427 6.72024C7.89692 6.9065 8.14163 7.1056 8.38539 7.30565C8.50561 7.40781 8.62726 7.50855 8.74652 7.61261L9.10338 7.92527C9.33954 8.13625 9.57522 8.3477 9.80141 8.57246C9.91402 8.68507 10.0257 8.79959 10.1336 8.91933C10.2424 9.03765 10.3474 9.16072 10.4476 9.29139C10.4481 9.29234 10.4481 9.29377 10.4472 9.29424C10.4467 9.29472 10.4457 9.29472 10.4453 9.29472C10.2899 9.24055 10.1402 9.17878 9.99385 9.11273C9.84655 9.0481 9.70257 8.97778 9.56049 8.90603C9.27634 8.76158 9.00169 8.60382 8.72752 8.44559L8.31887 8.2042C8.18297 8.12342 8.04945 8.03931 7.9145 7.95711C7.64793 7.78842 7.38231 7.61784 7.12619 7.43489C6.92804 7.29329 6.88195 7.01769 7.02355 6.81955C7.16515 6.6214 7.44075 6.57531 7.6389 6.71691C7.63937 6.71786 7.64175 6.71976 7.6427 6.72024Z" fill="black"/>
<path d="M11.9969 6.40498C12.3514 6.61976 12.6902 6.8564 13.0242 7.10063C13.3578 7.34582 13.6847 7.60051 14.0069 7.86186C14.3281 8.12463 14.6493 8.38835 14.952 8.67773C15.1036 8.82266 15.2509 8.97329 15.3939 9.13104C15.5364 9.2888 15.6742 9.45416 15.8006 9.6352C15.8016 9.63615 15.8011 9.63758 15.8002 9.63805C15.7997 9.63853 15.7987 9.63853 15.7983 9.63853C15.5835 9.58626 15.3796 9.51783 15.1805 9.44275C14.9819 9.3672 14.788 9.28405 14.598 9.19567C14.2183 9.01843 13.8562 8.81505 13.4946 8.6112C13.134 8.40593 12.7781 8.19353 12.4288 7.9721C12.08 7.74924 11.7365 7.51926 11.4077 7.26694C11.1786 7.09113 11.1354 6.76279 11.3112 6.53375C11.4742 6.32088 11.7717 6.26956 11.9969 6.40498Z" fill="black"/>
<path d="M7.22927 9.59215C7.29627 9.34696 7.39416 9.12506 7.50202 8.91076C7.55619 8.80384 7.61416 8.6993 7.67498 8.59714C7.73486 8.4945 7.79615 8.39234 7.85793 8.29113C7.98195 8.08871 8.10977 7.88914 8.24282 7.69337C8.37681 7.49854 8.51366 7.30515 8.66287 7.12173C8.78594 6.97015 9.00879 6.94735 9.16037 7.07042C9.30387 7.18731 9.33096 7.39448 9.2288 7.54464C9.09527 7.73993 8.94845 7.92572 8.79972 8.10962C8.65004 8.29303 8.49466 8.4717 8.33547 8.64846C8.25564 8.73637 8.17534 8.8238 8.09361 8.91028C8.01283 8.99724 7.9292 9.08277 7.84177 9.16497C7.66691 9.32938 7.48207 9.48619 7.26586 9.61971C7.25446 9.62684 7.23878 9.62304 7.23165 9.61163C7.22832 9.60546 7.22785 9.59833 7.22927 9.59215Z" fill="black"/>
<path d="M11.7099 9.97417C11.776 9.81498 11.8515 9.66388 11.9281 9.51325C12.0055 9.36357 12.0849 9.21484 12.1685 9.06991C12.3348 8.77911 12.5106 8.49591 12.6931 8.21841C12.8751 7.94043 13.0623 7.66625 13.2566 7.39826C13.4524 7.13121 13.6506 6.86607 13.8668 6.61518C14.0269 6.42938 14.3077 6.40847 14.494 6.56861C14.6717 6.72161 14.6978 6.98628 14.56 7.1716C14.3619 7.43675 14.1462 7.68764 13.9276 7.93615C13.7076 8.18372 13.4804 8.42558 13.2486 8.66364C13.0167 8.9017 12.7786 9.13454 12.5306 9.35977C12.4066 9.47238 12.2792 9.58215 12.1495 9.69001C12.0188 9.7974 11.8877 9.90384 11.7465 10.0027C11.7356 10.0103 11.7209 10.0074 11.7128 9.99697C11.7076 9.99032 11.7066 9.98177 11.7099 9.97417Z" fill="black"/>
<path d="M6.37029 13.0014C6.3223 12.8308 6.29284 12.6564 6.28286 12.4744C6.27953 12.3832 6.28048 12.2895 6.29426 12.1921C6.31042 12.0947 6.33323 11.9883 6.41448 11.8761L6.44394 11.8372L6.45582 11.8177L6.46817 11.7992L6.48053 11.7768C6.49669 11.7488 6.51284 11.7151 6.52852 11.6823C6.55941 11.6153 6.58744 11.5416 6.61453 11.4675C6.64114 11.3934 6.66585 11.3169 6.68961 11.2399C6.70196 11.2014 6.71336 11.1629 6.72429 11.1244C6.73475 11.0864 6.7471 11.0451 6.75518 11.0123C6.79794 10.8441 6.96901 10.7424 7.13722 10.7852C7.30543 10.8279 7.40711 10.999 7.36435 11.1672C7.36055 11.1824 7.35532 11.1967 7.34962 11.2109L7.34629 11.2185C7.32634 11.266 7.3078 11.3045 7.2869 11.3459C7.26646 11.3867 7.24603 11.4271 7.22417 11.4675C7.18093 11.5478 7.13532 11.6272 7.08447 11.7051C7.03363 11.7835 6.98088 11.8605 6.91769 11.936C6.88538 11.974 6.85449 12.0116 6.81553 12.0491L6.78749 12.0767L6.75518 12.1042L6.72287 12.1313L6.71812 12.1351L6.71574 12.137L6.71051 12.1403C6.67963 12.1575 6.63686 12.214 6.60597 12.28C6.57556 12.3475 6.54705 12.4226 6.52424 12.501C6.4791 12.6588 6.44347 12.8274 6.41591 12.998V12.999C6.414 13.0118 6.40165 13.0204 6.38882 13.0185C6.37979 13.0166 6.37267 13.0099 6.37029 13.0014Z" fill="black"/>
<path d="M14.9861 12.0849C14.8445 12.2027 14.6948 12.3082 14.5299 12.4009C14.4458 12.4456 14.3622 12.4897 14.2514 12.5145C14.221 12.5183 14.1954 12.5259 14.1564 12.5225L14.1293 12.5211L14.1155 12.5202L14.1065 12.5187L14.0694 12.513L13.9326 12.4883C13.8437 12.4722 13.7582 12.4555 13.6736 12.4446C13.5895 12.4337 13.5068 12.4284 13.4308 12.4294C13.3553 12.4308 13.284 12.4422 13.2369 12.4641L13.2203 12.4726L13.2122 12.4764L13.2065 12.4817C13.2027 12.485 13.1989 12.4878 13.1951 12.4907L13.1837 12.4978C13.1709 12.5054 13.1576 12.513 13.1443 12.5197C13.1158 12.5349 13.0925 12.5411 13.0678 12.5472C13.0559 12.5501 13.0417 12.5539 13.0312 12.5548L12.9998 12.5582L12.968 12.5605C12.958 12.561 12.9499 12.5605 12.9409 12.5601C12.9233 12.5596 12.9039 12.5591 12.8882 12.5572C12.7608 12.543 12.6663 12.5135 12.5731 12.4859C12.4809 12.4574 12.3945 12.4289 12.3099 12.4004C12.1412 12.3443 11.9787 12.2944 11.8233 12.2617C11.6679 12.2284 11.5202 12.2156 11.3928 12.2308C11.3291 12.2389 11.2716 12.2555 11.2179 12.2769L11.178 12.2944C11.1657 12.302 11.1528 12.3092 11.14 12.3163C11.1267 12.3225 11.1158 12.3334 11.1034 12.341L11.0849 12.3538L11.0516 12.3776C10.8668 12.5116 10.6701 12.5943 10.4752 12.6561C10.2795 12.7169 10.0842 12.7539 9.88889 12.7748C9.49925 12.8148 9.11483 12.8019 8.7385 12.7482C7.98677 12.6418 7.26166 12.3881 6.62161 11.9941C6.52562 11.9347 6.49569 11.8088 6.55461 11.7128C6.60973 11.6235 6.72234 11.5912 6.815 11.6344L6.81738 11.6354C7.44698 11.9286 8.12362 12.1163 8.80597 12.1818C9.14619 12.2118 9.48832 12.2165 9.81666 12.1714C9.98012 12.1486 10.1407 12.1182 10.289 12.0683C10.4372 12.0198 10.5755 11.9561 10.6819 11.8753L10.7409 11.8335C10.7661 11.8169 10.7898 11.7979 10.8169 11.7832L10.8967 11.7385L10.9804 11.701C11.0934 11.6544 11.2132 11.6283 11.3291 11.6173C11.4455 11.6054 11.5577 11.6126 11.6646 11.6268C11.772 11.6406 11.8737 11.6648 11.9701 11.6943C12.164 11.7523 12.3403 11.8307 12.5061 11.9091L12.7466 12.0231C12.8221 12.0583 12.8991 12.0892 12.9504 12.103C12.9737 12.1101 12.9861 12.1058 12.9599 12.1186C12.9566 12.1205 12.9533 12.1229 12.9509 12.1258C12.9476 12.1286 12.9537 12.1248 12.9575 12.1234L12.9694 12.1172L13.0174 12.0944L13.0417 12.0835L13.0654 12.0759L13.1129 12.0616C13.2393 12.0307 13.3519 12.036 13.4555 12.0488C13.6622 12.0773 13.8414 12.1433 14.0124 12.2089L14.1364 12.2569L14.1654 12.2674L14.1726 12.2697L14.1759 12.2702C14.1783 12.2707 14.1802 12.2712 14.1825 12.2721C14.1887 12.2773 14.2077 12.2754 14.2225 12.2773C14.2909 12.2783 14.3783 12.2579 14.4605 12.2336C14.6278 12.1847 14.796 12.1167 14.9623 12.0464L14.9628 12.0459C14.9747 12.0407 14.9884 12.0464 14.9932 12.0583C14.9965 12.0673 14.9937 12.0782 14.9861 12.0849Z" fill="black"/>
</svg>
