<svg width="25" height="25" viewBox="0 0 25 25" fill="none" xmlns="http://www.w3.org/2000/svg">
<path fill-rule="evenodd" clip-rule="evenodd" d="M11.1026 6.17924C9.36653 4.36712 7.59399 2.59536 5.70467 0.937522C4.50312 -0.109618 2.67254 -0.11812 1.47391 0.980484C0.181563 2.16198 0.0921308 4.16843 1.27362 5.46077C2.96998 7.3156 4.77793 9.05266 6.62465 10.7527C7.15526 11.2377 7.68992 11.7189 8.22832 12.1964C8.13222 12.298 8.03625 12.3996 7.94042 12.5015C6.55703 13.9653 5.20733 15.4703 3.90633 17.0307C3.25349 17.8076 2.62216 18.6117 2.00118 19.4235C1.38487 20.2419 0.773734 21.0642 0.21079 21.9448C0.182879 21.9867 0.179498 22.0388 0.203666 22.0841C0.240834 22.155 0.325782 22.1876 0.399093 22.1538C1.34646 21.7131 2.24228 21.2163 3.13627 20.7134C4.0251 20.2067 4.90175 19.6861 5.76156 19.1449C7.48117 18.0626 9.14924 16.9243 10.786 15.7483C11.0701 15.5441 11.3535 15.3391 11.6361 15.1332C11.861 15.3218 12.0864 15.5099 12.3123 15.6975C14.2558 17.2976 16.2026 18.8954 18.282 20.3558C19.3234 21.0848 20.3931 21.7866 21.4991 22.448C22.6085 23.1071 23.7533 23.7316 24.9805 24.2711C24.9833 24.2716 24.989 24.2726 24.9923 24.2703C24.9985 24.2684 25.0029 24.2604 24.9982 24.2538C24.4351 23.0389 23.7873 21.9055 23.1031 20.8126C22.4161 19.7191 21.696 18.6637 20.9443 17.6378C19.4432 15.5893 17.8044 13.6744 16.1645 11.7652C16.1499 11.7484 16.1353 11.7316 16.1207 11.7147C17.5153 10.5938 18.8919 9.45179 20.197 8.2273C21.2161 7.26661 21.3403 5.65848 20.4411 4.55667C19.4983 3.40324 17.7993 3.23075 16.6464 4.17064C15.2452 5.31309 13.9192 6.54 12.6095 7.78545C12.1112 7.24605 11.6091 6.71052 11.1026 6.17924Z" fill="#D0DC00"/>
</svg>
