<svg width="334" height="379" viewBox="0 0 334 379" fill="none" xmlns="http://www.w3.org/2000/svg">
<path fill-rule="evenodd" clip-rule="evenodd" d="M77.2051 334.804C74.9063 328.227 72.5636 325.513 70.7917 324.341L55.7612 325.892C54.5616 326.35 53.4115 326.822 52.3578 327.266C42.6113 331.304 31.9047 332.586 22.2423 330.873C12.3715 329.123 5.07893 324.559 1.66443 317.979C-2.82602 309.337 2.51855 300.693 8.7964 290.655C13.8999 282.432 19.67 273.108 21.5369 262.579L50.3632 100.004C64.5327 20.0901 143.349 -9.07792 213.802 3.41406C280.962 15.3223 346.429 66.2477 331.602 149.87L302.776 312.445C300.917 322.927 303.138 333.618 305.097 343.051L305.127 343.197C307.524 354.774 309.577 364.73 302.389 371.342C296.928 376.307 288.511 378.085 278.68 376.342C268.971 374.621 259.358 369.735 251.587 362.591C247.81 359.031 242.25 354.234 237.936 353.469C236.66 353.242 232.756 352.55 225.676 361.129C214.35 374.777 202.29 380.568 189.792 378.352C180.331 376.674 171.489 370.567 162.732 359.644C157.281 352.863 144.218 350.63 136.822 355.05C108.993 371.794 87.6179 364.102 77.2051 334.804ZM31.6896 288.686L26.6175 295.511C28.5246 292.359 30.4799 288.97 32.2839 285.334L31.6896 288.686ZM212.778 96.6584C217.252 100.584 221.45 104.78 225.561 109.071C226.76 110.33 227.949 111.598 229.129 112.875C232.231 109.926 235.371 107.02 238.689 104.315C241.419 102.089 245.443 102.497 247.676 105.229C249.805 107.838 249.511 111.646 247.098 113.921C244.007 116.821 240.747 119.526 237.444 122.18L237.548 122.3C241.431 126.821 245.313 131.356 248.867 136.207C250.647 138.636 252.353 141.135 253.98 143.725C255.6 146.313 257.134 148.997 258.467 151.874C258.478 151.89 258.468 151.909 258.453 151.913C258.445 151.919 258.432 151.916 258.425 151.915C255.519 150.637 252.808 149.159 250.181 147.598C247.562 146.031 245.029 144.369 242.563 142.643C237.638 139.185 233.028 135.401 228.426 131.612C227.891 131.168 227.357 130.722 226.824 130.275C226.155 130.763 225.484 131.248 224.811 131.732C220.935 134.517 216.985 137.212 212.913 139.775C210.877 141.057 208.801 142.29 206.696 143.49C204.579 144.681 202.457 145.857 200.214 146.901C200.04 146.981 199.839 146.904 199.751 146.736C199.694 146.628 199.702 146.505 199.768 146.406C201.101 144.321 202.548 142.373 204.008 140.435C205.478 138.513 206.973 136.608 208.519 134.769C211.6 131.073 214.797 127.51 218.073 124.043C218.299 123.802 218.527 123.561 218.754 123.321C217.479 122.19 216.213 121.05 214.957 119.902C210.583 115.876 206.302 111.762 202.285 107.37C199.487 104.31 199.699 99.5581 202.759 96.7601C205.598 94.1585 209.933 94.1787 212.778 96.6584ZM150.419 90.2001C153.547 93.4715 156.508 96.9005 159.453 100.341C159.781 100.737 160.11 101.132 160.439 101.527C161.548 100.469 162.677 99.4331 163.836 98.4318C165.956 96.5969 169.165 96.8332 171 98.9535C172.736 100.966 172.6 103.964 170.779 105.831C169.537 107.098 168.251 108.32 166.94 109.515L168.053 110.903C170.863 114.478 173.666 118.059 176.301 121.805C177.611 123.68 178.903 125.579 180.128 127.543C181.37 129.489 182.546 131.492 183.637 133.591C183.641 133.606 183.637 133.626 183.623 133.631C183.615 133.636 183.601 133.634 183.595 133.633C181.533 132.477 179.571 131.228 177.668 129.927C175.747 128.644 173.887 127.289 172.058 125.918C168.402 123.163 164.913 120.243 161.433 117.318L159.655 115.793C158.246 116.944 156.819 118.077 155.378 119.2C154.029 120.243 152.674 121.278 151.302 122.296C149.942 123.323 148.544 124.323 147.102 125.266C144.217 127.153 141.21 128.907 137.818 130.253C137.639 130.325 137.427 130.232 137.354 130.053C137.323 129.957 137.334 129.855 137.37 129.771C138.932 126.472 140.872 123.58 142.935 120.82C143.969 119.444 145.051 118.111 146.167 116.818C147.271 115.517 148.394 114.226 149.521 112.95C150.52 111.823 151.528 110.706 152.546 109.601C152.085 109.19 151.624 108.78 151.161 108.372C147.814 105.318 144.486 102.24 141.323 99.0109C138.876 96.5118 138.915 92.499 141.415 90.052C143.914 87.6051 147.927 87.6443 150.373 90.1435C150.378 90.1582 150.407 90.191 150.419 90.2001ZM116.763 168.16C116.448 170.759 116.427 173.299 116.678 175.831C116.69 175.958 116.775 176.07 116.897 176.12C117.074 176.179 117.27 176.089 117.329 175.912L117.332 175.899C118.149 173.555 119.076 171.259 120.11 169.142C120.629 168.09 121.22 167.1 121.82 166.222C122.422 165.366 123.169 164.673 123.648 164.509L123.73 164.475L123.769 164.454L123.846 164.412L124.37 164.11L124.716 163.907C132.357 170.246 141.259 175.07 150.792 178.188C155.979 179.891 161.383 181.037 166.993 181.449C169.807 181.643 172.662 181.609 175.583 181.239C178.493 180.854 181.482 180.178 184.431 178.747L184.961 178.495L185.256 178.36C185.333 178.329 185.409 178.29 185.485 178.251L185.486 178.251C185.599 178.193 185.713 178.134 185.835 178.102L185.835 178.102C186.034 178.033 186.234 177.965 186.427 177.888L187.036 177.74C187.849 177.572 188.703 177.481 189.624 177.526C191.463 177.631 193.521 178.182 195.634 179.042C197.749 179.896 199.922 181.009 202.167 182.224C203.292 182.84 204.443 183.46 205.675 184.094L205.885 184.199C207.066 184.79 208.285 185.4 209.951 185.892C210.161 185.956 210.425 186.01 210.666 186.059L210.69 186.064L210.708 186.068L210.708 186.069C210.827 186.096 210.936 186.122 211.072 186.139L211.528 186.185L211.98 186.217C212.106 186.228 212.275 186.217 212.43 186.207L212.516 186.201C212.881 186.176 213.226 186.147 213.667 186.003C213.872 185.942 214.079 185.868 214.28 185.793L214.459 185.721C214.52 185.69 214.581 185.659 214.643 185.622L214.737 185.562L214.86 185.529L215.117 185.449C215.837 185.258 216.873 185.276 217.945 185.445C219.023 185.622 220.179 185.903 221.341 186.269C222.318 186.575 223.294 186.94 224.298 187.314L224.322 187.324C224.512 187.394 224.702 187.465 224.893 187.536L226.767 188.229L227.276 188.402L227.4 188.445L227.593 188.493L227.972 188.581C228.375 188.688 228.688 188.693 229.003 188.697L229.003 188.697C229.113 188.698 229.223 188.699 229.337 188.705C230.964 188.633 232.257 188.218 233.559 187.797C236.123 186.901 238.504 185.784 240.802 184.473C240.926 184.398 240.994 184.25 240.969 184.114C240.932 183.935 240.751 183.819 240.57 183.864L240.562 183.869C238.034 184.447 235.485 184.986 232.997 185.258C231.774 185.395 230.486 185.465 229.521 185.28C229.451 185.258 229.374 185.241 229.298 185.225L229.298 185.225C229.154 185.194 229.019 185.164 228.97 185.106C228.951 185.094 228.935 185.085 228.918 185.078C228.906 185.072 228.894 185.067 228.881 185.062L228.835 185.047L228.74 184.996L228.356 184.775L226.723 183.785C224.468 182.429 222.101 181.046 219.249 180.125C217.817 179.684 216.237 179.327 214.372 179.447L213.665 179.53L213.31 179.577L212.94 179.671L212.204 179.873L212.02 179.931C211.998 179.935 211.971 179.943 211.948 179.95C211.911 179.961 211.887 179.968 211.92 179.948C211.961 179.914 212.014 179.888 212.066 179.87C212.358 179.785 212.339 179.778 212.187 179.719C212.131 179.697 212.055 179.667 211.971 179.624C211.28 179.301 210.268 178.671 209.288 177.984L206.174 175.769C204.026 174.244 201.729 172.694 199.133 171.388C197.843 170.729 196.466 170.132 194.982 169.667C193.506 169.198 191.938 168.816 190.262 168.692C188.595 168.556 186.836 168.625 185.12 169L183.843 169.321L182.603 169.753C182.325 169.845 182.063 169.969 181.802 170.091L181.802 170.091C181.668 170.154 181.536 170.216 181.401 170.274L180.463 170.718C178.755 171.593 176.64 172.147 174.422 172.461C172.201 172.794 169.854 172.822 167.485 172.734C162.729 172.549 157.903 171.624 153.167 170.348C144.892 168.047 136.913 164.442 129.588 159.759C129.735 159.604 129.882 159.448 130.028 159.291C130.942 158.317 131.786 157.309 132.599 156.282C133.009 155.766 133.399 155.246 133.791 154.719C134.19 154.187 134.549 153.689 134.95 153.067L135.016 152.968C135.132 152.781 135.242 152.592 135.334 152.387C136.361 150.115 135.351 147.442 133.08 146.415C130.809 145.389 128.135 146.398 127.108 148.669C126.979 148.961 126.814 149.301 126.647 149.645L126.647 149.645L126.647 149.645C126.56 149.824 126.473 150.003 126.39 150.177C126.139 150.694 125.881 151.21 125.61 151.723C125.081 152.752 124.54 153.772 123.978 154.753C123.409 155.734 122.828 156.705 122.223 157.575C121.919 157.999 121.606 158.436 121.307 158.792L121.077 159.077L120.856 159.308L120.639 159.553L120.124 160.031C118.694 161.413 118.105 162.861 117.632 164.198C117.193 165.54 116.945 166.862 116.763 168.16Z" fill="#EA1A77"/>
</svg>
