<svg width="575" height="651" viewBox="0 0 575 651" fill="none" xmlns="http://www.w3.org/2000/svg">
<path fill-rule="evenodd" clip-rule="evenodd" d="M133.075 574.99C129.123 563.681 125.094 559.013 122.047 556.999L96.2012 559.666C94.1384 560.453 92.1606 561.264 90.3488 562.027C73.5888 568.971 55.1781 571.177 38.5628 568.231C21.5893 565.221 9.04915 557.373 3.17766 546.059C-4.544 531.199 4.64639 516.334 15.4416 499.073C24.2175 484.933 34.1395 468.899 37.3499 450.793L86.9188 171.233C111.284 33.8163 246.815 -16.3404 367.964 5.14053C483.45 25.6176 596.027 113.188 570.53 256.983L520.961 536.543C517.765 554.567 521.583 572.95 524.952 589.172L525.004 589.424C529.126 609.33 532.657 626.45 520.296 637.821C510.905 646.357 496.431 649.416 479.527 646.419C462.831 643.458 446.301 635.057 432.938 622.772C426.444 616.651 416.883 608.401 409.465 607.086C407.27 606.696 400.556 605.506 388.383 620.259C368.907 643.728 348.169 653.684 326.677 649.874C310.409 646.989 295.205 636.487 280.146 617.705C270.773 606.044 248.309 602.204 235.592 609.805C187.738 638.598 150.981 625.371 133.075 574.99ZM54.8081 495.688L46.0865 507.423C49.3659 502.002 52.728 496.175 55.8302 489.924L54.8081 495.688ZM366.203 165.481C373.897 172.232 381.115 179.447 388.185 186.826C390.247 188.99 392.292 191.17 394.32 193.367C399.654 188.295 405.054 183.299 410.759 178.646C415.454 174.819 422.373 175.521 426.212 180.218C429.874 184.705 429.368 191.254 425.218 195.166C419.903 200.152 414.298 204.803 408.619 209.367L408.797 209.573C415.475 217.348 422.149 225.145 428.261 233.487C431.322 237.665 434.255 241.963 437.052 246.415C439.839 250.866 442.476 255.481 444.769 260.428C444.788 260.456 444.771 260.488 444.745 260.496C444.732 260.505 444.709 260.501 444.697 260.499C439.7 258.302 435.038 255.759 430.521 253.075C426.017 250.382 421.661 247.524 417.42 244.555C408.952 238.608 401.025 232.102 393.111 225.586C392.19 224.822 391.272 224.056 390.356 223.288C389.206 224.126 388.052 224.961 386.895 225.792C380.23 230.581 373.437 235.216 366.435 239.624C362.934 241.827 359.364 243.948 355.744 246.011C352.104 248.059 348.456 250.082 344.598 251.877C344.299 252.014 343.954 251.881 343.802 251.592C343.704 251.408 343.718 251.196 343.831 251.026C346.124 247.44 348.612 244.091 351.122 240.758C353.651 237.452 356.222 234.178 358.88 231.014C364.178 224.66 369.674 218.532 375.307 212.571C375.698 212.156 376.088 211.742 376.48 211.329C374.287 209.384 372.11 207.425 369.95 205.45C362.429 198.527 355.067 191.454 348.159 183.901C343.348 178.638 343.712 170.467 348.975 165.656C353.856 161.182 361.31 161.217 366.203 165.481ZM258.972 154.375C264.35 160.001 269.442 165.897 274.507 171.813C275.071 172.494 275.637 173.174 276.203 173.854C278.11 172.034 280.051 170.252 282.044 168.531C285.69 165.375 291.208 165.782 294.363 169.428C297.348 172.889 297.114 178.043 293.982 181.254C291.847 183.433 289.635 185.533 287.381 187.588L289.295 189.975C294.128 196.124 298.947 202.282 303.478 208.722C305.731 211.946 307.952 215.212 310.059 218.589C312.195 221.935 314.217 225.38 316.092 228.99C316.1 229.015 316.093 229.05 316.068 229.057C316.055 229.067 316.032 229.063 316.02 229.061C312.475 227.074 309.102 224.926 305.828 222.689C302.525 220.483 299.327 218.152 296.181 215.795C289.895 211.057 283.896 206.037 277.912 201.007L274.855 198.384C272.431 200.363 269.978 202.312 267.5 204.244C265.18 206.037 262.851 207.817 260.49 209.567C258.151 211.333 255.749 213.053 253.268 214.675C248.307 217.919 243.137 220.935 237.304 223.249C236.996 223.373 236.631 223.213 236.507 222.905C236.452 222.741 236.472 222.565 236.533 222.421C239.219 216.748 242.556 211.774 246.103 207.028C247.881 204.662 249.742 202.37 251.661 200.148C253.559 197.91 255.49 195.69 257.429 193.496C259.146 191.558 260.879 189.638 262.629 187.736C261.837 187.03 261.044 186.325 260.248 185.623C254.493 180.372 248.77 175.079 243.331 169.526C239.123 165.229 239.191 158.328 243.488 154.121C247.786 149.913 254.686 149.981 258.894 154.278C258.901 154.303 258.951 154.36 258.972 154.375ZM201.099 288.434C200.557 292.902 200.521 297.27 200.953 301.625C200.973 301.843 201.118 302.036 201.329 302.121C201.633 302.222 201.97 302.068 202.072 301.764L202.076 301.741C203.482 297.711 205.076 293.763 206.853 290.122C207.746 288.314 208.763 286.611 209.793 285.101C210.829 283.628 212.113 282.438 212.938 282.155L213.079 282.097L213.145 282.061L213.277 281.989L214.18 281.469L214.774 281.121C227.914 292.02 243.222 300.316 259.614 305.678C268.534 308.606 277.826 310.575 287.473 311.285C292.312 311.618 297.22 311.559 302.243 310.924C307.247 310.262 312.387 309.1 317.459 306.639L318.37 306.204L318.876 305.972C319.01 305.919 319.141 305.852 319.272 305.785L319.273 305.785C319.467 305.685 319.663 305.584 319.872 305.529L319.873 305.529C320.216 305.411 320.558 305.293 320.891 305.161L321.937 304.906C323.335 304.618 324.805 304.461 326.388 304.539C329.55 304.719 333.088 305.668 336.723 307.146C340.36 308.614 344.097 310.527 347.957 312.618C349.891 313.676 351.871 314.742 353.989 315.833L354.349 316.013C356.381 317.03 358.477 318.079 361.343 318.924C361.704 319.035 362.157 319.128 362.571 319.213L362.613 319.221C362.83 319.272 363.025 319.318 363.269 319.35L364.054 319.429L364.831 319.483C365.048 319.502 365.338 319.483 365.604 319.466C365.655 319.462 365.705 319.459 365.753 319.456C366.381 319.413 366.973 319.363 367.732 319.116C368.084 319.011 368.441 318.884 368.786 318.754L369.094 318.63C369.198 318.577 369.303 318.524 369.41 318.46L369.571 318.357L369.784 318.3L370.225 318.164C371.463 317.835 373.245 317.865 375.089 318.156C376.942 318.461 378.93 318.944 380.928 319.573C382.607 320.099 384.286 320.726 386.012 321.371C386.352 321.497 386.693 321.625 387.036 321.752L390.257 322.943L391.134 323.241L391.347 323.315L391.678 323.398L392.331 323.549C393.022 323.733 393.562 323.74 394.103 323.747L394.104 323.747C394.292 323.75 394.481 323.752 394.677 323.762C397.475 323.639 399.699 322.925 401.937 322.201C406.346 320.659 410.441 318.739 414.392 316.484C414.605 316.355 414.722 316.102 414.68 315.868C414.616 315.559 414.305 315.361 413.994 315.437L413.98 315.446C409.633 316.439 405.25 317.366 400.971 317.835C398.868 318.07 396.654 318.19 394.994 317.872C394.874 317.834 394.74 317.805 394.611 317.777C394.362 317.724 394.13 317.674 394.046 317.572C393.992 317.539 393.948 317.519 393.893 317.498L393.814 317.472L393.651 317.383L392.991 317.004L390.182 315.302C386.305 312.97 382.234 310.592 377.331 309.007C374.867 308.249 372.151 307.636 368.945 307.842L367.728 307.984L367.117 308.066L366.481 308.228L365.215 308.575L364.9 308.674C364.862 308.681 364.815 308.695 364.776 308.707C364.75 308.714 364.728 308.721 364.715 308.723C364.695 308.728 364.693 308.724 364.728 308.703C364.798 308.644 364.889 308.601 364.978 308.569C365.481 308.424 365.449 308.411 365.188 308.31C365.09 308.272 364.96 308.221 364.815 308.147C363.626 307.59 361.888 306.508 360.202 305.327L354.847 301.517C351.153 298.895 347.204 296.229 342.74 293.983C340.521 292.851 338.153 291.823 335.601 291.025C333.063 290.218 330.367 289.561 327.485 289.348C324.618 289.114 321.594 289.233 318.643 289.878L316.448 290.43L314.314 291.172C313.836 291.332 313.385 291.543 312.937 291.754C312.708 291.862 312.479 291.969 312.248 292.069L310.635 292.832C307.699 294.337 304.062 295.289 300.248 295.828C296.428 296.402 292.391 296.449 288.318 296.299C280.139 295.981 271.841 294.391 263.697 292.196C249.469 288.238 235.747 282.04 223.151 273.987C223.405 273.72 223.657 273.452 223.908 273.183C225.48 271.508 226.931 269.775 228.329 268.009C229.035 267.121 229.706 266.227 230.379 265.321C231.065 264.406 231.682 263.55 232.372 262.481L232.486 262.31C232.686 261.988 232.874 261.664 233.032 261.311C234.798 257.405 233.063 252.807 229.157 251.042C225.251 249.276 220.653 251.011 218.888 254.917C218.665 255.42 218.381 256.004 218.094 256.596C217.945 256.903 217.796 257.211 217.653 257.511C217.221 258.4 216.778 259.287 216.312 260.169C215.402 261.939 214.471 263.692 213.505 265.38C212.527 267.066 211.527 268.736 210.487 270.232C209.965 270.962 209.426 271.712 208.913 272.324L208.516 272.814L208.136 273.211L207.763 273.634L206.878 274.454C204.419 276.831 203.406 279.321 202.593 281.62C201.838 283.929 201.411 286.201 201.099 288.434Z" fill="#EA1A77"/>
</svg>
