<svg width="32" height="32" viewBox="0 0 32 32" fill="none" xmlns="http://www.w3.org/2000/svg">
<path fill-rule="evenodd" clip-rule="evenodd" d="M3 14.5599C3 8.17554 8.12045 3 14.4369 3C17.4701 3 20.3791 4.21791 22.5239 6.38582C24.6688 8.55372 25.8737 11.494 25.8737 14.5599C25.8737 20.9443 20.7533 26.1198 14.4369 26.1198C8.12045 26.1198 3 20.9443 3 14.5599ZM25.6845 23.8723L29.0907 26.6218H29.1498C29.8389 27.3184 29.8389 28.4477 29.1498 29.1442C28.4607 29.8408 27.3434 29.8408 26.6543 29.1442L23.8276 25.9046C23.5604 25.6354 23.4102 25.2698 23.4102 24.8885C23.4102 24.5071 23.5604 24.1415 23.8276 23.8723C24.343 23.3605 25.1691 23.3605 25.6845 23.8723Z" fill="#39B5E6"/>
</svg>
