<svg width="27" height="27" viewBox="0 0 27 27" fill="none" xmlns="http://www.w3.org/2000/svg">
<path fill-rule="evenodd" clip-rule="evenodd" d="M0 11.5599C0 5.17554 5.12045 0 11.4369 0C14.4701 0 17.3791 1.21791 19.5239 3.38582C21.6688 5.55372 22.8737 8.49403 22.8737 11.5599C22.8737 17.9443 17.7533 23.1198 11.4369 23.1198C5.12045 23.1198 0 17.9443 0 11.5599ZM22.6845 20.8723L26.0907 23.6218H26.1498C26.8389 24.3184 26.8389 25.4477 26.1498 26.1442C25.4607 26.8408 24.3434 26.8408 23.6543 26.1442L20.8276 22.9046C20.5604 22.6354 20.4102 22.2698 20.4102 21.8885C20.4102 21.5071 20.5604 21.1415 20.8276 20.8723C21.343 20.3605 22.1691 20.3605 22.6845 20.8723Z" fill="#D0DC00"/>
</svg>
