<?xml version="1.0" encoding="utf-8"?>
<!-- Generator: Adobe Illustrator 16.0.0, SVG Export Plug-In . SVG Version: 6.00 Build 0)  -->
<!DOCTYPE svg PUBLIC "-//W3C//DTD SVG 1.1//EN" "http://www.w3.org/Graphics/SVG/1.1/DTD/svg11.dtd">
<svg version="1.1" id="Layer_1" xmlns="http://www.w3.org/2000/svg" xmlns:xlink="http://www.w3.org/1999/xlink" x="0px" y="0px"
	 width="500px" height="500px" viewBox="0 0 500 500" enable-background="new 0 0 500 500" xml:space="preserve">
<g id="Layer_2">
	<g opacity="0.5">
		<g>
			
				<image overflow="visible" opacity="0.65" enable-background="new    " width="163" height="233" xlink:href="7D76D4AD.png"  transform="matrix(0.2312 0 0 0.2338 102.7866 22.7876)">
			</image>
			<g>
				<g>
					<polygon opacity="0.5" enable-background="new    " points="108.787,66.971 113.029,71.214 134.242,50 134.242,50 
						113.029,28.787 108.787,33.029 125.758,50 					"/>
					<polygon fill="#FFFFFF" points="110.201,66.971 113.029,69.799 132.828,50 113.029,30.201 110.201,33.029 127.172,50 					"/>
				</g>
			</g>
		</g>
	</g>
</g>
<g id="Layer_5">
	<g>
		<g>
			
				<image overflow="visible" opacity="0.65" enable-background="new    " width="163" height="233" xlink:href="7D76D4AF.png"  transform="matrix(0.2312 0 0 0.2338 102.7866 122.7876)">
			</image>
			<g>
				<g>
					<polygon opacity="0.5" enable-background="new    " points="108.787,166.971 113.029,171.214 134.242,150 134.242,150 
						113.029,128.787 108.787,133.029 125.758,150 					"/>
					<polygon fill="#FFFFFF" points="110.201,166.971 113.029,169.799 132.828,150 113.029,130.201 110.201,133.029 127.172,150 
											"/>
				</g>
			</g>
		</g>
	</g>
</g>
<g id="Layer_3">
	<g opacity="0.5">
		<g>
			
				<image overflow="visible" opacity="0.65" enable-background="new    " width="163" height="233" xlink:href="7D76D4AA.png"  transform="matrix(0.2312 0 0 0.2338 19.7573 22.7876)">
			</image>
			<g>
				<g>
					<polygon opacity="0.5" enable-background="new    " points="51.213,66.971 46.971,71.214 25.758,50 25.758,50 46.971,28.787 
						51.213,33.029 34.242,50 					"/>
					<polygon fill="#FFFFFF" points="49.799,66.971 46.971,69.799 27.172,50 46.971,30.201 49.799,33.029 32.828,50 					"/>
				</g>
			</g>
		</g>
	</g>
</g>
<g id="Layer_4">
	<g>
		<g>
			
				<image overflow="visible" opacity="0.65" enable-background="new    " width="163" height="233" xlink:href="7D76D4AB.png"  transform="matrix(0.2312 0 0 0.2338 19.7573 122.7876)">
			</image>
			<g>
				<g>
					<polygon opacity="0.5" enable-background="new    " points="51.213,166.971 46.971,171.214 25.758,150 25.758,150 
						46.971,128.787 51.213,133.029 34.242,150 					"/>
					<polygon fill="#FFFFFF" points="49.799,166.971 46.971,169.799 27.172,150 46.971,130.201 49.799,133.029 32.828,150 					"/>
				</g>
			</g>
		</g>
	</g>
</g>
<g id="Layer_6">
	<g opacity="0.2">
		<g>
			
				<image overflow="visible" opacity="0.65" enable-background="new    " width="163" height="233" xlink:href="7D76D4B5.png"  transform="matrix(0.2312 0 0 0.2338 19.7573 222.7876)">
			</image>
			<g>
				<g>
					<polygon opacity="0.5" enable-background="new    " points="51.213,266.971 46.971,271.213 25.758,250 25.758,250 
						46.971,228.787 51.213,233.029 34.242,250 					"/>
					<polygon fill="#FFFFFF" points="49.799,266.971 46.971,269.799 27.172,250 46.971,230.201 49.799,233.029 32.828,250 					"/>
				</g>
			</g>
		</g>
	</g>
</g>
<g id="Layer_7">
	<g opacity="0.2">
		<g>
			
				<image overflow="visible" opacity="0.65" enable-background="new    " width="163" height="233" xlink:href="7D76D4B7.png"  transform="matrix(0.2312 0 0 0.2338 102.7866 222.7876)">
			</image>
			<g>
				<g>
					<polygon opacity="0.5" enable-background="new    " points="108.787,266.971 113.029,271.214 134.242,250 134.242,250 
						113.029,228.787 108.787,233.029 125.758,250 					"/>
					<polygon fill="#FFFFFF" points="110.201,266.971 113.029,269.799 132.828,250 113.029,230.201 110.201,233.029 127.172,250 
											"/>
				</g>
			</g>
		</g>
	</g>
</g>
<g id="Layer_8">
	<g opacity="0.8">
		<g>
			<g>
				
					<image overflow="visible" opacity="0.4" enable-background="new    " width="100" height="100" xlink:href="7D76D4BA.png"  transform="matrix(0.3434 0 0 0.3434 162.5552 3.8604)">
				</image>
				<g>
					<g>
						<polygon opacity="0.55" enable-background="new    " points="192.189,12.827 187.84,8.477 179.68,16.634 171.522,8.476 
							167.171,12.825 175.33,20.985 167.171,29.145 171.522,33.494 179.68,25.337 187.84,33.496 192.189,29.145 184.031,20.985 
													"/>
						<polygon points="190.015,12.827 187.84,10.652 179.68,18.81 171.522,10.651 169.348,12.825 177.505,20.985 169.348,29.145 
							171.522,31.319 179.68,23.16 187.84,31.319 190.015,29.145 181.855,20.985 						"/>
					</g>
				</g>
			</g>
		</g>
	</g>
	<g>
		<g>
			<g>
				
					<image overflow="visible" opacity="0.4" enable-background="new    " width="100" height="100" xlink:href="7D76D4BB.png"  transform="matrix(0.3434 0 0 0.3434 207.1646 3.8604)">
				</image>
				<g>
					<g>
						<polygon opacity="0.55" enable-background="new    " points="236.799,12.827 232.449,8.477 224.29,16.634 216.132,8.476 
							211.78,12.825 219.939,20.985 211.78,29.145 216.132,33.494 224.29,25.337 232.449,33.496 236.799,29.145 228.641,20.985 
													"/>
						<polygon points="234.624,12.827 232.449,10.652 224.29,18.81 216.132,10.651 213.958,12.825 222.115,20.985 213.958,29.145 
							216.132,31.319 224.29,23.16 232.449,31.319 234.624,29.145 226.465,20.985 						"/>
					</g>
				</g>
			</g>
		</g>
	</g>
</g>
<g id="Layer_10">
	<g opacity="0.5">
		<g>
			
				<image overflow="visible" opacity="0.55" enable-background="new    " width="150" height="208" xlink:href="7D76D4BD.png"  transform="matrix(0.2288 0 0 0.2331 6.9531 305.7891)">
			</image>
			<g>
				<g>
					<polygon opacity="0.5" enable-background="new    " points="20.73,329.998 35.05,344.316 31.161,348.206 12.953,329.998 
						31.161,311.79 35.05,315.68 20.731,329.998 					"/>
					<polygon fill="#FFFFFF" points="19.316,329.998 33.636,344.316 31.161,346.792 14.367,329.998 31.161,313.204 33.636,315.68 
						19.317,329.998 					"/>
				</g>
			</g>
		</g>
	</g>
</g>
<g id="Layer_9">
	<g opacity="0.5">
		<g>
			
				<image overflow="visible" opacity="0.55" enable-background="new    " width="150" height="208" xlink:href="222CBD06.png"  transform="matrix(0.2288 0 0 0.2331 54.9502 305.7891)">
			</image>
			<g>
				<g>
					<polygon opacity="0.5" enable-background="new    " points="75.27,329.998 60.95,344.316 64.839,348.206 83.047,329.998 
						64.839,311.79 60.95,315.68 75.269,329.998 					"/>
					<polygon fill="#FFFFFF" points="76.684,329.998 62.364,344.316 64.839,346.792 81.633,329.998 64.839,313.204 62.364,315.68 
						76.683,329.998 					"/>
				</g>
			</g>
		</g>
	</g>
</g>
<g id="Layer_12">
	<g>
		<g>
			
				<image overflow="visible" opacity="0.55" enable-background="new    " width="150" height="208" xlink:href="222CBD01.png"  transform="matrix(0.2288 0 0 0.2331 6.9531 365.7891)">
			</image>
			<g>
				<g>
					<polygon opacity="0.5" enable-background="new    " points="20.73,389.998 35.05,404.316 31.161,408.206 12.953,389.998 
						31.161,371.79 35.05,375.68 20.731,389.998 					"/>
					<polygon fill="#FFFFFF" points="19.316,389.998 33.636,404.316 31.161,406.792 14.367,389.998 31.161,373.204 33.636,375.68 
						19.317,389.998 					"/>
				</g>
			</g>
		</g>
	</g>
</g>
<g id="Layer_11">
	<g>
		<g>
			
				<image overflow="visible" opacity="0.55" enable-background="new    " width="150" height="208" xlink:href="222CBD02.png"  transform="matrix(0.2288 0 0 0.2331 54.9502 365.7891)">
			</image>
			<g>
				<g>
					<polygon opacity="0.5" enable-background="new    " points="75.27,389.998 60.95,404.316 64.839,408.206 83.047,389.998 
						64.839,371.79 60.95,375.68 75.269,389.998 					"/>
					<polygon fill="#FFFFFF" points="76.684,389.998 62.364,404.316 64.839,406.792 81.633,389.998 64.839,373.204 62.364,375.68 
						76.683,389.998 					"/>
				</g>
			</g>
		</g>
	</g>
</g>
<g id="Layer_14">
	<g opacity="0.2">
		<g>
			
				<image overflow="visible" opacity="0.55" enable-background="new    " width="150" height="208" xlink:href="222CBD00.png"  transform="matrix(0.2288 0 0 0.2331 6.9531 425.7891)">
			</image>
			<g>
				<g>
					<polygon opacity="0.5" enable-background="new    " points="20.73,449.998 35.05,464.316 31.161,468.206 12.953,449.998 
						31.161,431.79 35.05,435.68 20.731,449.998 					"/>
					<polygon fill="#FFFFFF" points="19.316,449.998 33.636,464.316 31.161,466.792 14.367,449.998 31.161,433.204 33.636,435.68 
						19.317,449.998 					"/>
				</g>
			</g>
		</g>
	</g>
</g>
<g id="Layer_13">
	<g opacity="0.2">
		<g>
			
				<image overflow="visible" opacity="0.55" enable-background="new    " width="150" height="208" xlink:href="222CBD1E.png"  transform="matrix(0.2288 0 0 0.2331 54.9502 425.7891)">
			</image>
			<g>
				<g>
					<polygon opacity="0.5" enable-background="new    " points="75.27,449.998 60.95,464.316 64.839,468.206 83.047,449.998 
						64.839,431.79 60.95,435.68 75.269,449.998 					"/>
					<polygon fill="#FFFFFF" points="76.684,449.998 62.364,464.316 64.839,466.792 81.633,449.998 64.839,433.204 62.364,435.68 
						76.683,449.998 					"/>
				</g>
			</g>
		</g>
	</g>
</g>
<g id="Layer_15">
	<g opacity="0.8">
		<g>
			
				<image overflow="visible" opacity="0.65" enable-background="new    " width="100" height="125" xlink:href="222CBD03.png"  transform="matrix(0.2304 0 0 0.2266 169.5195 48.8682)">
			</image>
			<g>
				<g>
					<polygon opacity="0.55" enable-background="new    " points="186.479,57.697 181.176,63 186.479,68.303 183.651,71.132 
						178.348,65.829 175.52,63 178.348,60.171 183.651,54.868 					"/>
					<polygon fill="#FFFFFF" points="185.065,57.697 179.762,63 185.065,68.303 183.651,69.718 178.348,64.414 176.934,63 
						178.348,61.586 183.651,56.283 					"/>
				</g>
			</g>
		</g>
	</g>
</g>
<g id="Layer_19">
	<g>
		<g>
			
				<image overflow="visible" opacity="0.65" enable-background="new    " width="100" height="125" xlink:href="222CBD07.png"  transform="matrix(0.2304 0 0 0.2266 211.5195 48.8682)">
			</image>
			<g>
				<g>
					<polygon opacity="0.55" enable-background="new    " points="228.479,57.697 223.176,63 228.479,68.303 225.651,71.132 
						220.348,65.829 217.52,63 220.348,60.171 225.651,54.868 					"/>
					<polygon fill="#FFFFFF" points="227.065,57.697 221.762,63 227.065,68.303 225.651,69.718 220.348,64.414 218.934,63 
						220.348,61.586 225.651,56.283 					"/>
				</g>
			</g>
		</g>
	</g>
</g>
<g id="Layer_17">
	<g opacity="0.2">
		<g>
			
				<image overflow="visible" opacity="0.65" enable-background="new    " width="100" height="125" xlink:href="222CBD05.png"  transform="matrix(0.2304 0 0 0.2266 253.5195 48.8682)">
			</image>
			<g>
				<g>
					<polygon opacity="0.55" enable-background="new    " points="270.479,57.697 265.176,63 270.479,68.303 267.65,71.132 
						262.348,65.829 259.52,63 262.348,60.171 267.65,54.868 					"/>
					<polygon fill="#FFFFFF" points="269.064,57.697 263.762,63 269.064,68.303 267.65,69.718 262.348,64.414 260.934,63 
						262.348,61.586 267.65,56.283 					"/>
				</g>
			</g>
		</g>
	</g>
</g>
<g id="Layer_18">
	<g opacity="0.2">
		<g>
			
				<image overflow="visible" opacity="0.65" enable-background="new    " width="100" height="125" xlink:href="222CBD0C.png"  transform="matrix(0.2304 0 0 0.2266 253.5205 90.8682)">
			</image>
			<g>
				<g>
					<polygon opacity="0.55" enable-background="new    " points="259.521,99.697 264.824,105 259.521,110.303 262.35,113.132 
						267.652,107.829 270.48,105 267.652,102.171 262.35,96.868 					"/>
					<polygon fill="#FFFFFF" points="260.936,99.697 266.238,105 260.936,110.303 262.35,111.718 267.652,106.414 269.066,105 
						267.652,103.586 262.35,98.283 					"/>
				</g>
			</g>
		</g>
	</g>
	<g opacity="0.8">
		<g>
			
				<image overflow="visible" opacity="0.65" enable-background="new    " width="100" height="125" xlink:href="222CBD0D.png"  transform="matrix(0.2304 0 0 0.2266 169.5205 90.8682)">
			</image>
			<g>
				<g>
					<polygon opacity="0.55" enable-background="new    " points="175.521,99.697 180.824,105 175.521,110.303 178.349,113.132 
						183.652,107.829 186.48,105 183.652,102.171 178.349,96.868 					"/>
					<polygon fill="#FFFFFF" points="176.935,99.697 182.238,105 176.935,110.303 178.349,111.718 183.652,106.414 185.066,105 
						183.652,103.586 178.349,98.283 					"/>
				</g>
			</g>
		</g>
	</g>
	<g>
		<g>
			
				<image overflow="visible" opacity="0.65" enable-background="new    " width="100" height="125" xlink:href="222CBD25.png"  transform="matrix(0.2304 0 0 0.2266 211.5205 90.8682)">
			</image>
			<g>
				<g>
					<polygon opacity="0.55" enable-background="new    " points="217.521,99.697 222.824,105 217.521,110.303 220.349,113.132 
						225.652,107.829 228.48,105 225.652,102.171 220.349,96.868 					"/>
					<polygon fill="#FFFFFF" points="218.935,99.697 224.238,105 218.935,110.303 220.349,111.718 225.652,106.414 227.066,105 
						225.652,103.586 220.349,98.283 					"/>
				</g>
			</g>
		</g>
	</g>
</g>
<g id="Layer_20">
	<g opacity="0.2">
		<g>
			
				<image overflow="visible" opacity="0.65" enable-background="new    " width="125" height="100" xlink:href="222CBD27.png"  transform="matrix(0.2266 0 0 0.2304 376.8682 51.5195)">
			</image>
			<g>
				<g>
					<polygon opacity="0.55" enable-background="new    " points="385.696,68.479 391,63.176 396.303,68.479 399.132,65.651 
						393.828,60.348 391,57.52 388.171,60.348 382.868,65.651 					"/>
					<polygon fill="#FFFFFF" points="385.696,67.065 391,61.762 396.303,67.065 397.718,65.651 392.414,60.348 391,58.934 
						389.586,60.348 384.282,65.651 					"/>
				</g>
			</g>
		</g>
	</g>
	<g opacity="0.8">
		<g>
			
				<image overflow="visible" opacity="0.65" enable-background="new    " width="125" height="100" xlink:href="222CBD24.png"  transform="matrix(0.2266 0 0 0.2304 292.8682 51.5195)">
			</image>
			<g>
				<g>
					<polygon opacity="0.55" enable-background="new    " points="301.697,68.479 307,63.176 312.303,68.479 315.132,65.651 
						309.828,60.348 307,57.52 304.172,60.348 298.868,65.651 					"/>
					<polygon fill="#FFFFFF" points="301.697,67.065 307,61.762 312.303,67.065 313.718,65.651 308.414,60.348 307,58.934 
						305.586,60.348 300.283,65.651 					"/>
				</g>
			</g>
		</g>
	</g>
	<g>
		<g>
			
				<image overflow="visible" opacity="0.65" enable-background="new    " width="125" height="100" xlink:href="222CBD23.png"  transform="matrix(0.2266 0 0 0.2304 334.8682 51.5195)">
			</image>
			<g>
				<g>
					<polygon opacity="0.55" enable-background="new    " points="343.697,68.479 349,63.176 354.303,68.479 357.132,65.651 
						351.828,60.348 349,57.52 346.171,60.348 340.868,65.651 					"/>
					<polygon fill="#FFFFFF" points="343.697,67.065 349,61.762 354.303,67.065 355.718,65.651 350.414,60.348 349,58.934 
						347.586,60.348 342.283,65.651 					"/>
				</g>
			</g>
		</g>
	</g>
</g>
<g id="Layer_21">
	<g opacity="0.8">
		<g>
			
				<image overflow="visible" opacity="0.65" enable-background="new    " width="125" height="100" xlink:href="222CBD2D.png"  transform="matrix(0.2266 0 0 0.2304 292.8682 93.5205)">
			</image>
			<g>
				<g>
					<polygon opacity="0.55" enable-background="new    " points="301.697,99.521 307,104.824 312.303,99.521 315.132,102.349 
						309.828,107.652 307,110.48 304.172,107.652 298.868,102.349 					"/>
					<polygon fill="#FFFFFF" points="301.697,100.935 307,106.238 312.303,100.935 313.718,102.349 308.414,107.652 307,109.066 
						305.586,107.652 300.283,102.349 					"/>
				</g>
			</g>
		</g>
	</g>
	<g>
		<g>
			
				<image overflow="visible" opacity="0.65" enable-background="new    " width="125" height="100" xlink:href="222CBD2F.png"  transform="matrix(0.2266 0 0 0.2304 334.8682 93.5205)">
			</image>
			<g>
				<g>
					<polygon opacity="0.55" enable-background="new    " points="343.696,99.521 349,104.824 354.303,99.521 357.132,102.349 
						351.828,107.652 349,110.48 346.172,107.652 340.868,102.349 					"/>
					<polygon fill="#FFFFFF" points="343.696,100.935 349,106.238 354.303,100.935 355.718,102.349 350.414,107.652 349,109.066 
						347.586,107.652 342.282,102.349 					"/>
				</g>
			</g>
		</g>
	</g>
	<g opacity="0.2">
		<g>
			
				<image overflow="visible" opacity="0.65" enable-background="new    " width="125" height="100" xlink:href="222CBD2C.png"  transform="matrix(0.2266 0 0 0.2304 376.8682 93.5205)">
			</image>
			<g>
				<g>
					<polygon opacity="0.55" enable-background="new    " points="385.696,99.521 391,104.824 396.303,99.521 399.132,102.349 
						393.828,107.652 391,110.48 388.171,107.652 382.868,102.349 					"/>
					<polygon fill="#FFFFFF" points="385.696,100.935 391,106.238 396.303,100.935 397.718,102.349 392.414,107.652 391,109.066 
						389.586,107.652 384.282,102.349 					"/>
				</g>
			</g>
		</g>
	</g>
</g>
<g id="Layer_22">
	<g>
		<rect x="252" y="473" fill="#FFFFFF" width="248" height="27"/>
		<g>
			<path d="M267.837,489.529c-0.839,0.844-1.854,1.266-3.045,1.266s-2.206-0.422-3.045-1.266c-0.839-0.845-1.259-1.861-1.259-3.054
				c0-1.188,0.42-2.198,1.259-3.034s1.854-1.255,3.045-1.255s2.206,0.419,3.045,1.255s1.259,1.848,1.259,3.034
				C269.096,487.668,268.676,488.686,267.837,489.529z M262.188,483.863c-0.715,0.723-1.071,1.596-1.071,2.619
				c0,1.03,0.354,1.909,1.065,2.637c0.717,0.727,1.588,1.09,2.61,1.09s1.894-0.363,2.61-1.09c0.711-0.728,1.065-1.605,1.065-2.637
				c0-1.023-0.356-1.896-1.071-2.619c-0.713-0.728-1.582-1.09-2.604-1.09C263.773,482.773,262.904,483.137,262.188,483.863z
				 M266.221,488.542c-0.367,0.291-0.807,0.437-1.316,0.437c-0.645,0-1.194-0.229-1.65-0.69s-0.686-1.074-0.686-1.84
				c0-0.715,0.205-1.313,0.617-1.793c0.412-0.48,0.949-0.722,1.612-0.722c0.417,0,0.794,0.084,1.13,0.252
				c0.58,0.302,0.896,0.802,0.947,1.5h-0.709c-0.035-0.293-0.158-0.547-0.368-0.762c-0.211-0.215-0.517-0.322-0.918-0.322
				c-0.565,0-0.976,0.255-1.228,0.763c-0.164,0.324-0.246,0.674-0.246,1.049c0,0.535,0.131,0.985,0.395,1.351
				c0.264,0.366,0.645,0.549,1.143,0.549c0.32,0,0.589-0.086,0.803-0.256s0.363-0.417,0.449-0.74h0.709
				C266.814,487.842,266.586,488.251,266.221,488.542z"/>
			<path d="M273.473,482.188h1.373l4.293,6.954v-6.954h1.113v8.607h-1.311l-4.355-6.946v6.946h-1.113V482.188L273.473,482.188z"/>
			<path d="M282.402,482.188h1.178v8.607h-1.178V482.188z"/>
			<path d="M291.561,482.814c0.594,0.573,0.926,1.227,0.99,1.957h-1.137c-0.127-0.556-0.379-0.994-0.757-1.318
				s-0.908-0.486-1.591-0.486c-0.832,0-1.506,0.298-2.019,0.896c-0.512,0.596-0.769,1.51-0.769,2.74c0,1.01,0.23,1.827,0.693,2.454
				c0.463,0.628,1.152,0.941,2.069,0.941c0.845,0,1.487-0.33,1.929-0.99c0.234-0.348,0.408-0.805,0.523-1.371h1.137
				c-0.102,0.906-0.434,1.666-0.996,2.279c-0.676,0.738-1.587,1.107-2.734,1.107c-0.987,0-1.817-0.304-2.489-0.909
				c-0.886-0.801-1.326-2.038-1.326-3.711c0-1.271,0.332-2.313,0.996-3.125c0.719-0.885,1.709-1.325,2.971-1.325
				C290.13,481.953,290.966,482.24,291.561,482.814z"/>
			<path d="M294.139,482.188h1.137v4.214l4.308-4.214h1.63l-3.678,3.475l3.754,5.134h-1.525l-3.084-4.325l-1.402,1.325v3h-1.137
				v-8.608H294.139z"/>
			<path d="M306.238,488.018c0.025,0.488,0.137,0.886,0.333,1.189c0.372,0.57,1.028,0.855,1.97,0.855
				c0.422,0,0.805-0.063,1.151-0.188c0.67-0.242,1.005-0.676,1.005-1.301c0-0.469-0.144-0.804-0.426-1.002
				c-0.287-0.195-0.738-0.365-1.353-0.511l-1.129-0.264c-0.738-0.172-1.26-0.361-1.566-0.568c-0.53-0.358-0.794-0.896-0.794-1.61
				c0-0.773,0.26-1.408,0.78-1.904c0.521-0.496,1.258-0.744,2.213-0.744c0.877,0,1.623,0.219,2.237,0.653s0.921,1.132,0.921,2.089
				h-1.096c-0.058-0.461-0.177-0.813-0.359-1.061c-0.341-0.449-0.92-0.675-1.736-0.675c-0.657,0-1.133,0.146-1.421,0.435
				s-0.433,0.625-0.433,1.008c0,0.422,0.17,0.73,0.511,0.926c0.225,0.125,0.729,0.281,1.518,0.47l1.169,0.274
				c0.563,0.133,0.999,0.314,1.306,0.545c0.529,0.402,0.795,0.986,0.795,1.752c0,0.953-0.338,1.636-1.014,2.045
				c-0.678,0.41-1.463,0.615-2.357,0.615c-1.045,0-1.861-0.272-2.451-0.82c-0.592-0.543-0.881-1.278-0.869-2.209L306.238,488.018
				L306.238,488.018z"/>
			<path d="M319.738,482.188v1.025h-2.9v7.582h-1.178v-7.582h-2.9v-1.025H319.738z"/>
			<path d="M322.438,482.188h1.316l3.124,8.607h-1.277l-0.897-2.578h-3.377l-0.935,2.578h-1.194L322.438,482.188z M324.371,487.268
				l-1.325-3.803l-1.377,3.803H324.371z"/>
			<path d="M327.93,482.188h1.138v4.214l4.307-4.214h1.63l-3.678,3.475l3.754,5.134h-1.526l-3.084-4.325l-1.401,1.325v3h-1.138
				L327.93,482.188L327.93,482.188z"/>
			<path d="M336.045,482.188h6.246v1.056h-5.109v2.613h4.724v0.995h-4.724v2.918h5.197v1.025h-6.334V482.188L336.045,482.188z"/>
			<path d="M343.938,482.188h1.374l4.292,6.954v-6.954h1.113v8.607h-1.31l-4.356-6.946v6.946h-1.113V482.188z"/>
			<path d="M352.574,482.188h3.722c1.015,0,1.736,0.302,2.164,0.902c0.252,0.355,0.378,0.767,0.378,1.23
				c0,0.543-0.154,0.987-0.463,1.336c-0.16,0.184-0.391,0.352-0.691,0.504c0.441,0.168,0.771,0.356,0.99,0.567
				c0.387,0.375,0.58,0.894,0.58,1.554c0,0.555-0.175,1.057-0.524,1.506c-0.522,0.672-1.354,1.008-2.493,1.008h-3.661
				L352.574,482.188L352.574,482.188z M355.86,485.826c0.497,0,0.884-0.068,1.159-0.205c0.436-0.215,0.651-0.603,0.651-1.16
				c0-0.563-0.229-0.941-0.692-1.137c-0.261-0.109-0.646-0.164-1.16-0.164h-2.103v2.666H355.86z M356.254,489.799
				c0.722,0,1.236-0.207,1.544-0.621c0.193-0.262,0.29-0.578,0.29-0.949c0-0.625-0.282-1.051-0.846-1.276
				c-0.3-0.121-0.696-0.183-1.189-0.183h-2.336v3.029H356.254L356.254,489.799z"/>
			<path d="M361.867,482.188v5.32c0,0.625,0.118,1.146,0.354,1.56c0.352,0.625,0.94,0.938,1.771,0.938
				c0.996,0,1.674-0.338,2.032-1.014c0.191-0.367,0.289-0.861,0.289-1.482v-5.319h1.178v4.834c0,1.059-0.145,1.872-0.431,2.442
				c-0.523,1.039-1.517,1.56-2.975,1.56s-2.448-0.521-2.969-1.56c-0.287-0.57-0.43-1.385-0.43-2.442v-4.834h1.18V482.188z"/>
			<path d="M369.414,482.188h3.912c0.645,0,1.176,0.097,1.594,0.287c0.794,0.367,1.191,1.045,1.191,2.033
				c0,0.517-0.106,0.938-0.319,1.267c-0.213,0.327-0.511,0.592-0.894,0.79c0.336,0.138,0.589,0.316,0.759,0.539
				c0.17,0.224,0.265,0.584,0.284,1.084l0.041,1.154c0.012,0.328,0.038,0.572,0.082,0.732c0.069,0.272,0.194,0.449,0.375,0.526
				v0.193h-1.431c-0.039-0.074-0.069-0.17-0.094-0.287s-0.043-0.344-0.059-0.68l-0.07-1.437c-0.026-0.563-0.229-0.938-0.609-1.131
				c-0.216-0.104-0.556-0.158-1.019-0.158h-2.579v3.691h-1.166L369.414,482.188L369.414,482.188z M373.201,486.131
				c0.532,0,0.952-0.108,1.262-0.328c0.311-0.219,0.465-0.612,0.465-1.184c0-0.613-0.217-1.031-0.648-1.254
				c-0.232-0.117-0.542-0.176-0.93-0.176h-2.77v2.94L373.201,486.131L373.201,486.131z"/>
			<path d="M383.669,482.434c0.843,0.449,1.359,1.236,1.548,2.361h-1.153c-0.139-0.629-0.424-1.087-0.855-1.374
				s-0.977-0.431-1.635-0.431c-0.78,0-1.438,0.299-1.972,0.896c-0.533,0.599-0.801,1.488-0.801,2.672
				c0,1.023,0.221,1.856,0.66,2.499c0.44,0.644,1.158,0.964,2.153,0.964c0.762,0,1.393-0.226,1.893-0.677
				c0.499-0.451,0.755-1.181,0.768-2.188h-2.695v-0.967h3.779v4.604h-0.75l-0.281-1.107c-0.39,0.435-0.732,0.734-1.031,0.902
				c-0.504,0.289-1.144,0.435-1.92,0.435c-1.003,0-1.865-0.33-2.588-0.99c-0.788-0.828-1.183-1.965-1.183-3.41
				c0-1.441,0.386-2.588,1.155-3.439c0.731-0.813,1.679-1.219,2.841-1.219C382.398,481.965,383.088,482.121,383.669,482.434z"/>
			<path d="M390.191,486.91h2.94v1.084h-2.94V486.91z"/>
			<path d="M398.049,482.188h5.971v1.056h-4.805v2.613h4.226v1.024h-4.226v3.914h-1.166V482.188L398.049,482.188z"/>
			<path d="M405.408,482.188h3.912c0.645,0,1.176,0.097,1.594,0.287c0.794,0.367,1.191,1.045,1.191,2.033
				c0,0.517-0.106,0.938-0.319,1.267c-0.213,0.327-0.511,0.592-0.895,0.79c0.336,0.138,0.589,0.316,0.76,0.539
				c0.17,0.224,0.265,0.584,0.283,1.084l0.041,1.154c0.013,0.328,0.039,0.572,0.082,0.732c0.07,0.272,0.195,0.449,0.375,0.526v0.193
				h-1.43c-0.039-0.074-0.07-0.17-0.094-0.287c-0.024-0.117-0.043-0.344-0.06-0.68l-0.069-1.437
				c-0.026-0.563-0.229-0.938-0.609-1.131c-0.216-0.104-0.556-0.158-1.019-0.158h-2.579v3.691h-1.166L405.408,482.188
				L405.408,482.188z M409.195,486.131c0.531,0,0.952-0.108,1.262-0.328c0.31-0.219,0.465-0.612,0.465-1.184
				c0-0.613-0.217-1.031-0.648-1.254c-0.232-0.117-0.542-0.176-0.93-0.176h-2.77v2.94L409.195,486.131L409.195,486.131z"/>
			<path d="M414.045,482.188h6.246v1.056h-5.109v2.613h4.724v0.995h-4.724v2.918h5.197v1.025h-6.334V482.188L414.045,482.188z"/>
			<path d="M422.699,488.018c0.025,0.488,0.138,0.886,0.333,1.189c0.372,0.57,1.028,0.855,1.97,0.855
				c0.422,0,0.806-0.063,1.151-0.188c0.67-0.242,1.005-0.676,1.005-1.301c0-0.469-0.143-0.804-0.426-1.002
				c-0.287-0.195-0.738-0.365-1.352-0.511l-1.13-0.264c-0.738-0.172-1.26-0.361-1.566-0.568c-0.529-0.358-0.795-0.896-0.795-1.61
				c0-0.773,0.262-1.408,0.781-1.904c0.521-0.496,1.258-0.744,2.212-0.744c0.878,0,1.624,0.219,2.238,0.653s0.921,1.132,0.921,2.089
				h-1.096c-0.058-0.461-0.177-0.813-0.359-1.061c-0.341-0.449-0.92-0.675-1.736-0.675c-0.658,0-1.133,0.146-1.421,0.435
				s-0.433,0.625-0.433,1.008c0,0.422,0.17,0.73,0.511,0.926c0.225,0.125,0.729,0.281,1.517,0.47l1.17,0.274
				c0.563,0.133,0.999,0.314,1.306,0.545c0.53,0.402,0.795,0.986,0.795,1.752c0,0.953-0.338,1.636-1.015,2.045
				c-0.677,0.41-1.462,0.615-2.356,0.615c-1.044,0-1.861-0.272-2.452-0.82c-0.591-0.543-0.88-1.278-0.868-2.209L422.699,488.018
				L422.699,488.018z"/>
			<path d="M436.029,482.814c0.595,0.573,0.925,1.227,0.989,1.957h-1.137c-0.127-0.556-0.379-0.994-0.757-1.318
				s-0.908-0.486-1.591-0.486c-0.833,0-1.505,0.298-2.018,0.896c-0.513,0.596-0.769,1.51-0.769,2.74c0,1.01,0.23,1.827,0.693,2.454
				c0.463,0.628,1.151,0.941,2.068,0.941c0.846,0,1.487-0.33,1.93-0.99c0.232-0.348,0.407-0.805,0.522-1.371h1.137
				c-0.101,0.906-0.433,1.666-0.996,2.279c-0.676,0.738-1.587,1.107-2.733,1.107c-0.988,0-1.818-0.304-2.49-0.909
				c-0.884-0.801-1.326-2.038-1.326-3.711c0-1.271,0.332-2.313,0.996-3.125c0.718-0.885,1.708-1.325,2.971-1.325
				C434.599,481.953,435.435,482.24,436.029,482.814z"/>
			<path d="M445.697,483.418c0.569,0.762,0.854,1.736,0.854,2.924c0,1.285-0.326,2.354-0.979,3.205c-0.767,1-1.857,1.5-3.275,1.5
				c-1.324,0-2.365-0.438-3.123-1.313c-0.676-0.845-1.014-1.91-1.014-3.199c0-1.164,0.289-2.16,0.867-2.988
				c0.741-1.063,1.84-1.594,3.293-1.594C443.842,481.953,444.967,482.441,445.697,483.418z M444.669,488.904
				c0.459-0.737,0.688-1.584,0.688-2.542c0-1.014-0.266-1.828-0.795-2.445c-0.528-0.618-1.253-0.927-2.171-0.927
				c-0.891,0-1.616,0.306-2.18,0.918c-0.563,0.61-0.844,1.514-0.844,2.706c0,0.954,0.241,1.759,0.724,2.413s1.266,0.981,2.348,0.981
				C443.467,490.01,444.21,489.642,444.669,488.904z"/>
			<path d="M452.172,488.229c0,0.728-0.106,1.291-0.322,1.693c-0.398,0.734-1.157,1.103-2.275,1.103
				c-0.646,0-1.197-0.176-1.654-0.524c-0.458-0.35-0.687-0.972-0.687-1.866v-0.615h1.096v0.615c0,0.469,0.104,0.821,0.313,1.059
				c0.209,0.235,0.535,0.354,0.979,0.354c0.622,0,1.029-0.213,1.222-0.639c0.117-0.263,0.176-0.756,0.176-1.482v-5.735h1.154
				L452.172,488.229L452.172,488.229z"/>
			<path d="M454.703,488.018c0.025,0.488,0.138,0.886,0.333,1.189c0.372,0.57,1.029,0.855,1.97,0.855
				c0.422,0,0.807-0.063,1.151-0.188c0.67-0.242,1.005-0.676,1.005-1.301c0-0.469-0.143-0.804-0.426-1.002
				c-0.287-0.195-0.738-0.365-1.352-0.511l-1.13-0.264c-0.738-0.172-1.26-0.361-1.565-0.568c-0.53-0.358-0.796-0.896-0.796-1.61
				c0-0.773,0.262-1.408,0.781-1.904c0.521-0.496,1.258-0.744,2.212-0.744c0.878,0,1.624,0.219,2.238,0.653s0.921,1.132,0.921,2.089
				h-1.096c-0.058-0.461-0.176-0.813-0.359-1.061c-0.341-0.449-0.92-0.675-1.735-0.675c-0.659,0-1.134,0.146-1.422,0.435
				c-0.287,0.289-0.433,0.625-0.433,1.008c0,0.422,0.17,0.73,0.511,0.926c0.225,0.125,0.729,0.281,1.517,0.47l1.17,0.274
				c0.563,0.133,0.999,0.314,1.306,0.545c0.53,0.402,0.795,0.986,0.795,1.752c0,0.953-0.338,1.636-1.015,2.045
				c-0.676,0.41-1.462,0.615-2.356,0.615c-1.044,0-1.86-0.272-2.452-0.82c-0.591-0.543-0.88-1.278-0.867-2.209L454.703,488.018
				L454.703,488.018z"/>
			<path d="M462.057,489.518h1.226v1.277h-1.226V489.518z"/>
			<path d="M471.367,482.814c0.595,0.573,0.925,1.227,0.99,1.957h-1.138c-0.127-0.556-0.379-0.994-0.757-1.318
				s-0.908-0.486-1.591-0.486c-0.833,0-1.505,0.298-2.017,0.896c-0.514,0.596-0.77,1.51-0.77,2.74c0,1.01,0.231,1.827,0.693,2.454
				c0.463,0.628,1.151,0.941,2.068,0.941c0.846,0,1.487-0.33,1.93-0.99c0.232-0.348,0.407-0.805,0.522-1.371h1.137
				c-0.101,0.906-0.433,1.666-0.995,2.279c-0.677,0.738-1.588,1.107-2.734,1.107c-0.988,0-1.818-0.304-2.49-0.909
				c-0.884-0.801-1.326-2.038-1.326-3.711c0-1.271,0.332-2.313,0.996-3.125c0.719-0.885,1.708-1.325,2.972-1.325
				C469.938,481.953,470.772,482.24,471.367,482.814z"/>
			<path d="M481.035,483.418c0.57,0.762,0.854,1.736,0.854,2.924c0,1.285-0.325,2.354-0.979,3.205c-0.767,1-1.857,1.5-3.275,1.5
				c-1.323,0-2.364-0.438-3.123-1.313c-0.676-0.845-1.014-1.91-1.014-3.199c0-1.164,0.289-2.16,0.867-2.988
				c0.742-1.063,1.84-1.594,3.293-1.594C479.18,481.953,480.305,482.441,481.035,483.418z M480.007,488.904
				c0.459-0.737,0.688-1.584,0.688-2.542c0-1.014-0.266-1.828-0.794-2.445c-0.529-0.618-1.253-0.927-2.171-0.927
				c-0.892,0-1.617,0.306-2.181,0.918c-0.563,0.61-0.844,1.514-0.844,2.706c0,0.954,0.241,1.759,0.724,2.413
				s1.266,0.981,2.348,0.981C478.805,490.01,479.548,489.642,480.007,488.904z"/>
			<path d="M483.25,482.188h1.671l2.476,7.277l2.456-7.277h1.659v8.607h-1.112v-5.08c0-0.176,0.004-0.467,0.012-0.873
				s0.012-0.842,0.012-1.307l-2.457,7.26h-1.156l-2.479-7.26v0.264c0,0.211,0.006,0.532,0.018,0.964
				c0.013,0.433,0.019,0.749,0.019,0.952v5.08h-1.113v-8.607H483.25z"/>
		</g>
	</g>
</g>
<g id="Layer_23">
	<g>
		
			<image overflow="visible" opacity="0.6" enable-background="new    " width="100" height="142" xlink:href="222CBD26.png"  transform="matrix(0.24 0 0 0.2332 169 130.5)">
		</image>
		<g>
			<g>
				<polygon fill="#FFFFFF" points="172.33,146.298 174.064,148.032 175.798,146.298 177.532,144.563 179.266,146.298 181,148.032 
					182.734,146.298 184.468,144.563 186.201,146.298 187.936,148.032 189.67,146.298 190,145.968 190,138.5 185,133.5 172,133.5 
					172,145.968 				"/>
				<polygon fill="#FFFFFF" points="189.67,149.765 187.936,151.5 186.201,149.765 184.468,148.032 182.734,149.765 181,151.5 
					179.266,149.765 177.532,148.032 175.798,149.765 174.064,151.5 172.33,149.765 172,149.436 172,160.5 190,160.5 190,149.436 
									"/>
			</g>
		</g>
	</g>
</g>
</svg>
