<svg width="519" height="576" viewBox="0 0 519 576" fill="none" xmlns="http://www.w3.org/2000/svg">
<path d="M474.082 434.292C466.042 436.446 456.36 436.048 447.593 433.223C436.933 429.828 424.552 426.71 413.35 429.711C400.155 433.247 391.433 443.815 386.732 462.043C383.092 475.807 377.603 483.704 370.241 485.677C363.987 487.353 354.957 485.436 344.188 480.155C334.062 475.143 321.893 474.123 310.004 477.308C298.227 480.464 287.928 487.625 281.712 496.831C274.915 506.819 268.077 513.051 261.764 514.743C259.023 515.477 250.725 517.701 235.776 502.492C222.614 489.105 209.762 484.263 196.559 487.8C185.306 490.816 176.134 499.709 168.651 507.965C162.431 514.816 154.234 519.995 146.245 522.136C140.988 523.544 137.628 523.202 135.965 522.699C135.604 519.463 136.44 512.481 137.092 507.114C138.729 493.26 140.809 475.974 136.047 458.201L80.3561 250.361C63.1528 186.157 94.4288 103.725 203.636 74.4632C278.715 54.346 370.664 74.4449 395.196 165.999L450.887 373.84C455.647 391.604 466.071 405.494 474.438 416.722C477.678 421.047 481.958 426.713 483.241 429.647C481.951 431.051 478.978 432.98 474.082 434.292ZM492.994 402.856C485.447 392.762 476.856 381.318 473.247 367.848L417.556 160.008C388.911 53.1028 283.517 29.1119 197.658 52.1178C107.59 76.2515 30.6383 154.184 58.0129 256.347L113.704 464.188C117.31 477.648 115.644 491.841 114.157 504.365C112.286 519.68 110.747 532.835 120.817 540.559C128.479 546.442 139.608 547.806 152.227 544.425C164.579 541.115 176.511 533.692 185.789 523.546C190.355 518.492 196.982 511.644 202.557 510.15C204.343 509.671 209.171 508.377 219.284 518.733C247.746 547.575 277.226 544.859 300.84 509.733C307.131 500.433 323.786 495.86 333.963 500.857C350.33 508.919 364.139 511.25 376.234 508.009C392.212 503.728 403.254 490.236 409.093 467.873C412.716 453.838 417.707 452.5 419.339 452.063C424.854 450.585 434.066 453.181 440.489 455.299C453.606 459.445 467.651 459.907 480.064 456.581C492.631 453.214 501.587 446.469 505.295 437.594C510.131 425.82 502.213 415.2 492.994 402.856Z" fill="black"/>
<path d="M170.719 189.554C176.217 191.69 181.605 194.104 186.981 196.54C189.649 197.804 192.337 199.036 194.997 200.34L202.963 204.264C208.254 206.934 213.539 209.615 218.717 212.582C221.298 214.073 223.871 215.602 226.401 217.244C228.942 218.856 231.436 220.572 233.882 222.449C233.895 222.464 233.902 222.489 233.887 222.503C233.881 222.514 233.864 222.518 233.855 222.52C230.784 222.294 227.778 221.902 224.813 221.417C221.837 220.962 218.893 220.388 215.977 219.779C210.14 218.545 204.411 217.023 198.688 215.491L190.131 213.106C187.283 212.304 184.462 211.43 181.624 210.598C175.988 208.84 170.36 207.043 164.843 204.976C160.575 203.376 158.407 198.617 160.007 194.349C161.607 190.081 166.366 187.913 170.634 189.513C170.647 189.527 170.7 189.55 170.719 189.554Z" fill="black"/>
<path d="M247.918 162.765C255.366 164.931 262.637 167.568 269.859 170.365C277.077 173.182 284.221 176.203 291.311 179.367C298.391 182.561 305.476 185.773 312.349 189.538C315.792 191.424 319.184 193.433 322.534 195.592C325.875 197.754 329.168 200.076 332.329 202.736C332.351 202.749 332.35 202.777 332.335 202.79C332.328 202.801 332.311 202.806 332.303 202.808C328.167 202.903 324.15 202.654 320.187 202.261C316.23 201.857 312.323 201.293 308.459 200.616C300.736 199.251 293.206 197.328 285.681 195.395C278.167 193.431 270.704 191.315 263.317 189.004C255.932 186.664 248.608 184.171 241.441 181.202C236.449 179.133 234.077 173.407 236.146 168.415C238.061 163.777 243.19 161.408 247.918 162.765Z" fill="black"/>
<path d="M177.165 243.473C177.189 238.715 177.884 234.23 178.796 229.833C179.257 227.638 179.799 225.467 180.403 223.326C180.988 221.18 181.602 219.036 182.228 216.907C183.49 212.647 184.834 208.42 186.291 204.236C187.769 200.065 189.307 195.906 191.115 191.868C192.606 188.531 196.524 187.039 199.861 188.53C203.021 189.948 204.514 193.562 203.395 196.772C201.927 200.949 200.173 205.019 198.375 209.064C196.557 213.105 194.614 217.087 192.592 221.054C191.575 223.03 190.547 224.999 189.488 226.959C188.449 228.922 187.351 230.873 186.169 232.783C183.804 236.602 181.222 240.332 177.96 243.794C177.789 243.978 177.487 243.985 177.303 243.813C177.213 243.718 177.17 243.591 177.165 243.473Z" fill="black"/>
<path d="M260.006 228.672C260.429 225.474 261.063 222.377 261.717 219.283C262.392 216.202 263.106 213.129 263.916 210.104C265.514 204.041 267.32 198.07 269.275 192.169C271.218 186.262 273.275 180.399 275.49 174.612C277.735 168.836 280.033 163.083 282.726 157.5C284.721 153.366 289.697 151.628 293.84 153.62C297.794 155.525 299.548 160.183 297.955 164.201C295.657 169.954 292.972 175.535 290.225 181.086C287.447 186.628 284.512 192.1 281.473 197.527C278.434 202.954 275.259 208.317 271.866 213.59C270.169 216.226 268.398 218.828 266.576 221.406C264.734 223.98 262.878 226.54 260.806 229.01C260.645 229.201 260.365 229.22 260.168 229.071C260.042 228.976 259.983 228.826 260.006 228.672Z" fill="black"/>
<path d="M178.152 309.269C176.458 306.418 175.081 303.408 174.019 300.166C173.517 298.533 173.08 296.836 172.858 295.009C172.678 293.169 172.575 291.135 173.5 288.714L173.844 287.867L173.965 287.457L174.098 287.062L174.213 286.598C174.37 286.013 174.498 285.325 174.623 284.657C174.857 283.296 175.007 281.828 175.137 280.357C175.259 278.888 175.335 277.385 175.392 275.879C175.429 275.123 175.449 274.372 175.46 273.623C175.465 272.885 175.488 272.078 175.475 271.446C175.433 268.198 178.033 265.531 181.281 265.49C184.529 265.448 187.196 268.048 187.238 271.296C187.243 271.589 187.218 271.872 187.184 272.158L187.16 272.311C187.03 273.267 186.881 274.052 186.703 274.901C186.532 275.739 186.358 276.568 186.159 277.404C185.766 279.065 185.326 280.721 184.784 282.376C184.245 284.039 183.664 285.687 182.887 287.359C182.487 288.202 182.111 289.031 181.588 289.898L181.215 290.532L180.764 291.187L180.311 291.833L180.244 291.925L180.21 291.97L180.132 292.056C179.656 292.515 179.157 293.744 178.919 295.088C178.696 296.455 178.544 297.95 178.512 299.478C178.46 302.549 178.633 305.771 178.961 308.988L178.965 309.006C178.993 309.247 178.811 309.461 178.57 309.489C178.398 309.498 178.236 309.413 178.152 309.269Z" fill="black"/>
<path d="M329.452 250.973C327.463 253.789 325.268 256.421 322.736 258.895C321.432 260.11 320.134 261.314 318.252 262.297C317.721 262.513 317.294 262.775 316.573 262.903L316.077 263.009L315.823 263.058L315.653 263.076L314.955 263.153L312.362 263.369C310.677 263.507 309.05 263.621 307.468 263.833C305.895 264.043 304.375 264.349 303.005 264.734C301.646 265.126 300.413 265.677 299.668 266.3L299.409 266.536L299.281 266.643L299.204 266.766C299.151 266.844 299.096 266.914 299.041 266.984L298.87 267.168C298.674 267.368 298.471 267.57 298.262 267.754C297.821 268.167 297.43 268.392 297.013 268.623C296.812 268.732 296.573 268.87 296.388 268.938L295.837 269.15L295.273 269.347C295.095 269.404 294.947 269.435 294.781 269.47C294.461 269.546 294.107 269.632 293.814 269.674C291.443 270.033 289.591 269.958 287.774 269.911C285.969 269.842 284.267 269.746 282.6 269.64C279.279 269.444 276.1 269.329 273.132 269.489C270.162 269.64 267.428 270.124 265.199 271.016C264.088 271.47 263.129 272.049 262.262 272.696L261.625 273.207C261.439 273.404 261.241 273.595 261.044 273.786C260.833 273.963 260.689 274.213 260.502 274.41L260.229 274.732L259.743 275.323C257.05 278.641 253.895 281.088 250.672 283.149C247.427 285.196 244.076 286.813 240.647 288.137C233.796 290.746 226.785 292.376 219.721 293.228C205.616 294.945 191.278 293.87 177.799 289.85C175.776 289.241 174.625 287.109 175.225 285.089C175.789 283.207 177.668 282.077 179.553 282.41L179.6 282.416C192.402 284.666 205.544 284.781 218.197 282.662C224.493 281.555 230.701 279.983 236.418 277.577C239.263 276.373 242.019 275.045 244.457 273.425C246.903 271.83 249.094 270.01 250.627 268.034L251.489 266.992C251.864 266.57 252.202 266.111 252.62 265.713L253.847 264.519L255.177 263.436C256.996 262.046 259.034 260.993 261.077 260.234C263.124 259.456 265.186 259.041 267.188 258.781C269.196 258.51 271.151 258.455 273.038 258.521C276.824 258.63 280.39 259.193 283.768 259.807L288.667 260.704C290.203 260.974 291.745 261.159 292.739 261.16C293.194 261.176 293.397 261.039 292.987 261.397C292.936 261.448 292.887 261.507 292.858 261.57C292.812 261.638 292.905 261.539 292.967 261.495L293.152 261.325L293.909 260.681L294.294 260.366L294.687 260.113L295.477 259.625C297.612 258.455 299.673 258.004 301.608 257.734C305.483 257.248 309.041 257.574 312.451 257.931L314.926 258.198L315.501 258.247L315.641 258.255L315.703 258.247C315.749 258.244 315.785 258.244 315.833 258.25C315.97 258.314 316.304 258.188 316.58 258.151C317.821 257.836 319.303 257.044 320.672 256.207C323.458 254.512 326.17 252.469 328.836 250.392L328.842 250.381C329.032 250.229 329.309 250.265 329.452 250.457C329.556 250.604 329.557 250.816 329.452 250.973Z" fill="black"/>
</svg>
