<svg width="1920" height="1090" viewBox="0 0 1920 1090" fill="none" xmlns="http://www.w3.org/2000/svg">
<mask id="mask0_657_3771" style="mask-type:alpha" maskUnits="userSpaceOnUse" x="0" y="0" width="1920" height="1090">
<path d="M0 0H1920V1057.5C1165 1001.5 767.5 1164 0 1044.5V0Z" fill="#C4C4C4"/>
</mask>
<g mask="url(#mask0_657_3771)">
<path d="M1920.87 0H0V1287H1920.87V0Z" fill="url(#paint0_radial_657_3771)"/>
<path d="M1920.63 0.25H1845.15L1351.04 655.244C1351.16 654.982 1351.18 654.863 1351.06 654.982C1351.13 654.839 1351.06 654.863 1350.89 655.006L1790.34 0.25H1706.43L1350.54 654.78C1350.62 654.505 1350.62 654.41 1350.52 654.529C1350.57 654.374 1350.5 654.41 1350.35 654.601L1662.66 0.25H1593.26L1349.96 654.446C1350 654.172 1349.99 654.076 1349.91 654.208C1349.94 654.041 1349.87 654.088 1349.75 654.315L1555.82 0.25H1494.72L1349.36 654.208C1349.37 653.922 1349.34 653.826 1349.28 653.981C1349.28 653.814 1349.23 653.886 1349.14 654.112L1460.88 0.25H1404.18L1348.59 655.84C1348.58 655.876 1348.57 655.912 1348.56 655.947C1348.7 653.79 1348.65 653.409 1348.51 653.993L1372 0.25H1316.8L1348.09 653.957C1347.93 653.338 1347.89 653.719 1348.06 655.936C1348.05 655.9 1348.04 655.864 1348.03 655.84L1284.8 0.25H1228.02L1347.46 654.124C1347.37 653.898 1347.32 653.838 1347.31 653.969C1347.25 653.826 1347.23 653.933 1347.24 654.231L1194 0.25H1132.35L1346.85 654.351C1346.73 654.136 1346.66 654.088 1346.68 654.231C1346.6 654.112 1346.6 654.231 1346.65 654.505L1094.49 0.25H1024.03L1346.26 654.66C1346.11 654.47 1346.04 654.422 1346.08 654.565C1345.99 654.458 1346 654.577 1346.08 654.851L979.53 0.25H893.84L1345.71 655.077C1345.54 654.923 1345.46 654.887 1345.52 655.03C1345.41 654.934 1345.44 655.054 1345.57 655.316L837.7 0.25H724.99L1345.23 655.59C1345.06 655.483 1344.98 655.459 1345.05 655.578C1344.93 655.506 1344.97 655.626 1345.15 655.876L647.54 0.25H482.86L1344.83 656.198C1344.65 656.126 1344.59 656.126 1344.67 656.222C1344.53 656.174 1344.6 656.281 1344.81 656.508L361.83 0.25H80.5601L1344.56 656.901C1344.38 656.865 1344.32 656.877 1344.4 656.96C1344.26 656.937 1344.34 657.032 1344.58 657.211L1.33008 66.8089V242.686L1344.36 657.64C1344.17 657.64 1344.11 657.664 1344.22 657.723C1344.08 657.723 1344.17 657.807 1344.41 657.938L1.33008 340.147V503.488L1345.83 658.569C1345.85 658.581 1345.86 658.581 1345.88 658.593C1343.99 658.414 1343.72 658.486 1344.31 658.677L1.33008 596.182V755.065L1344.14 659.153C1343.7 659.32 1344.07 659.368 1345.87 659.165C1345.83 659.177 1345.79 659.201 1345.75 659.213L1.33008 847.544V1011.27L1344.3 659.916C1344.15 660.011 1344.11 660.059 1344.21 660.059C1344.08 660.142 1344.19 660.166 1344.48 660.142L1.33008 1109.38V1286.75H2.18008L1344.5 660.643C1344.35 660.774 1344.31 660.834 1344.43 660.81C1344.32 660.905 1344.44 660.905 1344.7 660.834L201.43 1286.74H449.11L1344.77 661.322C1344.63 661.489 1344.6 661.561 1344.71 661.513C1344.62 661.62 1344.72 661.608 1344.97 661.501L557.03 1286.74H705.47L1345.12 661.966C1345 662.156 1344.97 662.24 1345.08 662.18C1345 662.311 1345.11 662.264 1345.34 662.109L775.81 1286.74H878.86L1345.56 662.526C1345.47 662.728 1345.45 662.824 1345.55 662.74C1345.49 662.883 1345.59 662.824 1345.8 662.621L930.48 1286.73H1009.59L1346.08 662.979C1346.02 663.193 1346.02 663.277 1346.1 663.181C1346.06 663.336 1346.15 663.265 1346.33 663.026L1050.91 1286.73H1116.46L1346.67 663.289C1346.64 663.515 1346.65 663.61 1346.71 663.503C1346.69 663.67 1346.76 663.586 1346.91 663.324L1151.86 1286.73H1209.66L1347.29 663.503C1347.29 663.765 1347.31 663.849 1347.36 663.73C1347.36 663.884 1347.42 663.801 1347.52 663.539L1241.69 1286.73H1295.35L1348.07 661.835C1348.08 661.799 1348.09 661.775 1348.1 661.739C1347.95 663.92 1348.01 664.29 1348.15 663.67L1325.82 1286.71H1377.81L1348.56 663.73C1348.72 664.361 1348.77 663.992 1348.59 661.751C1348.6 661.787 1348.61 661.811 1348.62 661.847L1408.34 1286.71H1462.07L1349.19 663.551C1349.29 663.789 1349.34 663.861 1349.34 663.706C1349.4 663.872 1349.43 663.789 1349.42 663.515L1494.25 1286.71H1552.51L1349.79 663.289C1349.93 663.539 1350 663.598 1349.97 663.432C1350.05 663.563 1350.06 663.479 1350.02 663.253L1588.27 1286.71H1654.75L1350.35 662.979C1350.53 663.217 1350.62 663.277 1350.56 663.098C1350.65 663.205 1350.66 663.134 1350.6 662.931L1696.69 1286.71H1777.34L1350.88 662.562C1351.1 662.764 1351.19 662.812 1351.11 662.645C1351.21 662.74 1351.21 662.669 1351.13 662.478L1830.1 1286.71H1920.63V1270.52L1351.34 662.049C1351.58 662.204 1351.68 662.24 1351.58 662.097C1351.7 662.18 1351.69 662.109 1351.57 661.93L1920.62 1203.38V1100.58L1351.71 661.453C1351.97 661.561 1352.07 661.573 1351.96 661.453C1352.08 661.501 1352.06 661.441 1351.93 661.286L1920.63 1046.95V961.904L1351.99 660.786C1352.25 660.845 1352.36 660.846 1352.24 660.738C1352.37 660.774 1352.35 660.702 1352.2 660.583L1920.64 916.01V841.144L1352.18 660.071C1352.47 660.083 1352.58 660.059 1352.43 659.976C1352.55 659.976 1352.52 659.928 1352.37 659.833L1920.63 799.66V730.217L1350.91 659.165C1350.87 659.141 1350.82 659.129 1350.77 659.106C1352.49 659.272 1352.87 659.225 1352.48 659.07L1920.62 690.818V622.495L1352.4 658.569C1352.98 658.379 1352.69 658.307 1350.77 658.522C1350.79 658.51 1350.81 658.51 1350.83 658.498L1920.62 583.108V513.629L1352.26 657.818C1352.49 657.687 1352.56 657.616 1352.41 657.628C1352.54 657.556 1352.48 657.521 1352.28 657.532L1920.62 472.026V396.672L1352.06 657.103C1352.28 656.925 1352.34 656.841 1352.19 656.877C1352.29 656.794 1352.23 656.77 1352.05 656.805L1920.62 350.42V264.448L1351.8 656.46C1352 656.245 1352.05 656.138 1351.9 656.198C1352 656.09 1351.94 656.079 1351.76 656.15L1920.62 210.14V105.696L1351.48 655.816C1351.65 655.566 1351.68 655.459 1351.54 655.554C1351.62 655.423 1351.56 655.435 1351.39 655.542L1920.64 37.3252V0.25H1920.63Z" fill="url(#paint1_radial_657_3771)"/>
</g>
<defs>
<radialGradient id="paint0_radial_657_3771" cx="0" cy="0" r="1" gradientUnits="userSpaceOnUse" gradientTransform="translate(1341.99 643.494) scale(1323.75 1581.99)">
<stop stop-color="#D6C42A"/>
<stop offset="0.9808" stop-color="#678F18"/>
</radialGradient>
<radialGradient id="paint1_radial_657_3771" cx="0" cy="0" r="1" gradientUnits="userSpaceOnUse" gradientTransform="translate(1365.73 638.101) scale(1362.25 1619.88)">
<stop stop-color="#E6D12E"/>
<stop offset="0.9808" stop-color="#A3AE22"/>
</radialGradient>
</defs>
</svg>
